<?xml version="1.0" encoding="UTF-8"?>
<svg xmlns="http://www.w3.org/2000/svg" xmlns:xlink="http://www.w3.org/1999/xlink" width="1600" height="854" viewBox="0 0 1600 854">
<rect x="-160" y="-85.4" width="1920" height="1024.8" fill="rgb(100%, 100%, 100%)" fill-opacity="1"/>
<path fill-rule="nonzero" fill="rgb(100%, 100%, 100%)" fill-opacity="1" d="M 0 0 L 1600 0 L 1600 820.914062 L 0 820.914062 Z M 0 0 "/>
<path fill-rule="nonzero" fill="rgb(100%, 100%, 100%)" fill-opacity="1" d="M 98 31.71875 L 1568 31.71875 L 1568 780.882812 L 98 780.882812 Z M 98 31.71875 "/>
<path fill="none" stroke-width="1.664951" stroke-linecap="butt" stroke-linejoin="miter" stroke="rgb(0%, 0%, 0%)" stroke-opacity="0.12" stroke-miterlimit="2" d="M 164.96537 780.882812 L 164.96537 31.71875 " transform="matrix(0.999097, 0, 0, 1, 0, 0)"/>
<path fill="none" stroke-width="1.664951" stroke-linecap="butt" stroke-linejoin="miter" stroke="rgb(0%, 0%, 0%)" stroke-opacity="0.12" stroke-miterlimit="2" d="M 833.752879 780.882812 L 833.752879 31.71875 " transform="matrix(0.999097, 0, 0, 1, 0, 0)"/>
<path fill="none" stroke-width="1.664951" stroke-linecap="butt" stroke-linejoin="miter" stroke="rgb(0%, 0%, 0%)" stroke-opacity="0.12" stroke-miterlimit="2" d="M 1502.536478 780.882812 L 1502.536478 31.71875 " transform="matrix(0.999097, 0, 0, 1, 0, 0)"/>
<path fill="none" stroke-width="1.664951" stroke-linecap="butt" stroke-linejoin="miter" stroke="rgb(0%, 0%, 0%)" stroke-opacity="0.12" stroke-miterlimit="2" d="M 98.088574 671.933594 L 1569.417184 671.933594 " transform="matrix(0.999097, 0, 0, 1, 0, 0)"/>
<path fill="none" stroke-width="1.664951" stroke-linecap="butt" stroke-linejoin="miter" stroke="rgb(0%, 0%, 0%)" stroke-opacity="0.12" stroke-miterlimit="2" d="M 98.088574 514.589844 L 1569.417184 514.589844 " transform="matrix(0.999097, 0, 0, 1, 0, 0)"/>
<path fill="none" stroke-width="1.664951" stroke-linecap="butt" stroke-linejoin="miter" stroke="rgb(0%, 0%, 0%)" stroke-opacity="0.12" stroke-miterlimit="2" d="M 98.088574 357.246094 L 1569.417184 357.246094 " transform="matrix(0.999097, 0, 0, 1, 0, 0)"/>
<path fill="none" stroke-width="1.664951" stroke-linecap="butt" stroke-linejoin="miter" stroke="rgb(0%, 0%, 0%)" stroke-opacity="0.12" stroke-miterlimit="2" d="M 98.088574 199.902344 L 1569.417184 199.902344 " transform="matrix(0.999097, 0, 0, 1, 0, 0)"/>
<path fill="none" stroke-width="1.664951" stroke-linecap="butt" stroke-linejoin="miter" stroke="rgb(0%, 0%, 0%)" stroke-opacity="0.12" stroke-miterlimit="2" d="M 98.088574 42.558594 L 1569.417184 42.558594 " transform="matrix(0.999097, 0, 0, 1, 0, 0)"/>
<path fill-rule="nonzero" fill="rgb(0%, 0%, 0%)" fill-opacity="1" d="M 174.4375 812.507812 C 174.4375 823.375 170.613281 829.113281 163.613281 829.113281 C 156.53125 829.113281 152.792969 823.375 152.792969 812.214844 C 152.792969 801.109375 156.480469 795.335938 163.613281 795.335938 C 170.800781 795.335938 174.4375 801.023438 174.4375 812.507812 Z M 170.238281 812.128906 C 170.238281 803.261719 168.035156 798.972656 163.613281 798.972656 C 159.195312 798.972656 156.992188 803.210938 156.992188 812.265625 C 156.992188 821.324219 159.195312 825.714844 163.53125 825.714844 C 168.089844 825.714844 170.238281 821.511719 170.238281 812.128906 Z M 170.238281 812.128906 "/>
<path fill-rule="nonzero" fill="rgb(0%, 0%, 0%)" fill-opacity="1" d="M 831.113281 816.742188 C 831.113281 823.75 826.453125 828.414062 819.777344 828.414062 C 813.902344 828.414062 810.183594 825.800781 808.835938 819.222656 C 808.835938 819.222656 812.929688 819.222656 812.929688 819.222656 C 813.902344 822.945312 816.105469 824.773438 819.691406 824.773438 C 824.164062 824.773438 826.914062 822.074219 826.914062 817.308594 C 826.914062 812.402344 824.113281 809.566406 819.691406 809.566406 C 817.128906 809.566406 815.542969 810.355469 813.632812 812.644531 C 813.632812 812.644531 809.859375 812.644531 809.859375 812.644531 C 809.859375 812.644531 812.316406 795.335938 812.316406 795.335938 C 812.316406 795.335938 829.386719 795.335938 829.386719 795.335938 C 829.386719 795.335938 829.386719 799.382812 829.386719 799.382812 C 829.386719 799.382812 815.628906 799.382812 815.628906 799.382812 C 815.628906 799.382812 814.332031 807.925781 814.332031 807.925781 C 816.242188 806.527344 818.105469 805.929688 820.441406 805.929688 C 826.777344 805.929688 831.113281 810.21875 831.113281 816.742188 Z M 831.113281 816.742188 "/>
<path fill-rule="nonzero" fill="rgb(0%, 0%, 0%)" fill-opacity="1" d="M 856.757812 812.507812 C 856.757812 823.375 852.933594 829.113281 845.933594 829.113281 C 838.851562 829.113281 835.109375 823.375 835.109375 812.214844 C 835.109375 801.109375 838.796875 795.335938 845.933594 795.335938 C 853.121094 795.335938 856.757812 801.023438 856.757812 812.507812 Z M 852.558594 812.128906 C 852.558594 803.261719 850.355469 798.972656 845.933594 798.972656 C 841.511719 798.972656 839.3125 803.210938 839.3125 812.265625 C 839.3125 821.324219 841.511719 825.714844 845.847656 825.714844 C 850.40625 825.714844 852.558594 821.511719 852.558594 812.128906 Z M 852.558594 812.128906 "/>
<path fill-rule="nonzero" fill="rgb(0%, 0%, 0%)" fill-opacity="1" d="M 1477.183594 828.414062 C 1477.183594 828.414062 1473.070312 828.414062 1473.070312 828.414062 C 1473.070312 828.414062 1473.070312 804.851562 1473.070312 804.851562 C 1473.070312 804.851562 1465.765625 804.851562 1465.765625 804.851562 C 1465.765625 804.851562 1465.765625 801.914062 1465.765625 801.914062 C 1472.097656 801.109375 1473.035156 800.410156 1474.46875 795.335938 C 1474.46875 795.335938 1477.183594 795.335938 1477.183594 795.335938 Z M 1510.5625 812.507812 C 1510.5625 823.375 1506.738281 829.113281 1499.738281 829.113281 C 1492.65625 829.113281 1488.917969 823.375 1488.917969 812.214844 C 1488.917969 801.109375 1492.605469 795.335938 1499.738281 795.335938 C 1506.925781 795.335938 1510.5625 801.023438 1510.5625 812.507812 Z M 1506.363281 812.128906 C 1506.363281 803.261719 1504.160156 798.972656 1499.738281 798.972656 C 1495.320312 798.972656 1493.117188 803.210938 1493.117188 812.265625 C 1493.117188 821.324219 1495.320312 825.714844 1499.65625 825.714844 C 1504.210938 825.714844 1506.363281 821.511719 1506.363281 812.128906 Z M 1506.363281 812.128906 "/>
<path fill-rule="nonzero" fill="rgb(0%, 0%, 0%)" fill-opacity="1" d="M 1536.480469 812.507812 C 1536.480469 823.375 1532.65625 829.113281 1525.660156 829.113281 C 1518.574219 829.113281 1514.835938 823.375 1514.835938 812.214844 C 1514.835938 801.109375 1518.523438 795.335938 1525.660156 795.335938 C 1532.84375 795.335938 1536.480469 801.023438 1536.480469 812.507812 Z M 1532.28125 812.128906 C 1532.28125 803.261719 1530.078125 798.972656 1525.660156 798.972656 C 1521.238281 798.972656 1519.035156 803.210938 1519.035156 812.265625 C 1519.035156 821.324219 1521.238281 825.714844 1525.574219 825.714844 C 1530.132812 825.714844 1532.28125 821.511719 1532.28125 812.128906 Z M 1532.28125 812.128906 "/>
<path fill-rule="nonzero" fill="rgb(0%, 0%, 0%)" fill-opacity="1" d="M 28.832031 677.28125 C 28.832031 677.28125 17.738281 677.28125 17.738281 677.28125 C 17.738281 677.28125 17.738281 673.914062 17.738281 673.914062 C 17.738281 673.914062 28.832031 673.914062 28.832031 673.914062 Z M 55.347656 680.542969 C 55.347656 680.542969 50.449219 680.542969 50.449219 680.542969 C 50.449219 680.542969 50.449219 688.472656 50.449219 688.472656 C 50.449219 688.472656 46.351562 688.472656 46.351562 688.472656 C 46.351562 688.472656 46.351562 680.542969 46.351562 680.542969 C 46.351562 680.542969 32.40625 680.542969 32.40625 680.542969 C 32.40625 680.542969 32.40625 676.203125 32.40625 676.203125 C 32.40625 676.203125 47.425781 655.394531 47.425781 655.394531 C 47.425781 655.394531 50.449219 655.394531 50.449219 655.394531 C 50.449219 655.394531 50.449219 676.855469 50.449219 676.855469 C 50.449219 676.855469 55.347656 676.855469 55.347656 676.855469 Z M 46.351562 676.855469 C 46.351562 676.855469 46.351562 662.382812 46.351562 662.382812 C 46.351562 662.382812 36.007812 676.855469 36.007812 676.855469 Z M 46.351562 676.855469 "/>
<path fill-rule="nonzero" fill="rgb(0%, 0%, 0%)" fill-opacity="1" d="M 80.667969 672.214844 C 80.667969 683.082031 76.847656 688.824219 69.847656 688.824219 C 62.761719 688.824219 59.023438 683.082031 59.023438 671.925781 C 59.023438 660.816406 62.710938 655.042969 69.847656 655.042969 C 77.035156 655.042969 80.667969 660.734375 80.667969 672.214844 Z M 76.46875 671.839844 C 76.46875 662.972656 74.269531 658.683594 69.847656 658.683594 C 65.425781 658.683594 63.222656 662.917969 63.222656 671.976562 C 63.222656 681.03125 65.425781 685.421875 69.761719 685.421875 C 74.320312 685.421875 76.46875 681.21875 76.46875 671.839844 Z M 76.46875 671.839844 "/>
<path fill-rule="nonzero" fill="rgb(0%, 0%, 0%)" fill-opacity="1" d="M 27.398438 519.9375 C 27.398438 519.9375 16.304688 519.9375 16.304688 519.9375 C 16.304688 519.9375 16.304688 516.570312 16.304688 516.570312 C 16.304688 516.570312 27.398438 516.570312 27.398438 516.570312 Z M 53.503906 507.753906 C 53.503906 511.804688 51.117188 515.257812 46.507812 517.734375 C 46.507812 517.734375 41.847656 520.261719 41.847656 520.261719 C 37.78125 522.636719 36.296875 524.363281 35.871094 527.0625 C 35.871094 527.0625 53.265625 527.0625 53.265625 527.0625 C 53.265625 527.0625 53.265625 531.128906 53.265625 531.128906 C 53.265625 531.128906 31.261719 531.128906 31.261719 531.128906 C 31.636719 523.851562 33.632812 520.722656 40.53125 516.8125 C 40.53125 516.8125 44.832031 514.386719 44.832031 514.386719 C 47.769531 512.695312 49.304688 510.457031 49.304688 507.839844 C 49.304688 504.304688 46.507812 501.636719 42.769531 501.636719 C 38.722656 501.636719 36.433594 503.980469 36.109375 509.53125 C 36.109375 509.53125 32.011719 509.53125 32.011719 509.53125 C 32.234375 501.5 36.160156 498.050781 42.921875 498.050781 C 49.167969 498.050781 53.503906 502.152344 53.503906 507.753906 Z M 53.503906 507.753906 "/>
<path fill-rule="nonzero" fill="rgb(0%, 0%, 0%)" fill-opacity="1" d="M 79.238281 514.871094 C 79.238281 525.738281 75.414062 531.480469 68.414062 531.480469 C 61.328125 531.480469 57.589844 525.738281 57.589844 514.582031 C 57.589844 503.476562 61.277344 497.699219 68.414062 497.699219 C 75.601562 497.699219 79.238281 503.390625 79.238281 514.871094 Z M 75.035156 514.496094 C 75.035156 505.628906 72.835938 501.339844 68.414062 501.339844 C 63.992188 501.339844 61.789062 505.578125 61.789062 514.632812 C 61.789062 523.6875 63.992188 528.082031 68.328125 528.082031 C 72.886719 528.082031 75.035156 523.875 75.035156 514.496094 Z M 75.035156 514.496094 "/>
<path fill-rule="nonzero" fill="rgb(0%, 0%, 0%)" fill-opacity="1" d="M 53.503906 194.25 C 53.503906 198.296875 51.117188 201.75 46.507812 204.226562 C 46.507812 204.226562 41.847656 206.757812 41.847656 206.757812 C 37.78125 209.132812 36.296875 210.855469 35.871094 213.558594 C 35.871094 213.558594 53.265625 213.558594 53.265625 213.558594 C 53.265625 213.558594 53.265625 217.625 53.265625 217.625 C 53.265625 217.625 31.261719 217.625 31.261719 217.625 C 31.636719 210.34375 33.632812 207.21875 40.53125 203.304688 C 40.53125 203.304688 44.832031 200.878906 44.832031 200.878906 C 47.769531 199.1875 49.304688 196.949219 49.304688 194.335938 C 49.304688 190.796875 46.507812 188.132812 42.769531 188.132812 C 38.722656 188.132812 36.433594 190.472656 36.109375 196.027344 C 36.109375 196.027344 32.011719 196.027344 32.011719 196.027344 C 32.234375 187.996094 36.160156 184.542969 42.921875 184.542969 C 49.167969 184.542969 53.503906 188.644531 53.503906 194.25 Z M 53.503906 194.25 "/>
<path fill-rule="nonzero" fill="rgb(0%, 0%, 0%)" fill-opacity="1" d="M 79.238281 201.714844 C 79.238281 212.582031 75.414062 218.324219 68.414062 218.324219 C 61.328125 218.324219 57.589844 212.582031 57.589844 201.425781 C 57.589844 190.320312 61.277344 184.542969 68.414062 184.542969 C 75.601562 184.542969 79.238281 190.234375 79.238281 201.714844 Z M 75.035156 201.339844 C 75.035156 192.472656 72.835938 188.183594 68.414062 188.183594 C 63.992188 188.183594 61.789062 192.421875 61.789062 201.476562 C 61.789062 210.53125 63.992188 214.921875 68.328125 214.921875 C 72.886719 214.921875 75.035156 210.71875 75.035156 201.339844 Z M 75.035156 201.339844 "/>
<path fill-rule="nonzero" fill="rgb(0%, 0%, 0%)" fill-opacity="1" d="M 53.914062 51.304688 C 53.914062 51.304688 49.015625 51.304688 49.015625 51.304688 C 49.015625 51.304688 49.015625 59.234375 49.015625 59.234375 C 49.015625 59.234375 44.917969 59.234375 44.917969 59.234375 C 44.917969 59.234375 44.917969 51.304688 44.917969 51.304688 C 44.917969 51.304688 30.972656 51.304688 30.972656 51.304688 C 30.972656 51.304688 30.972656 46.964844 30.972656 46.964844 C 30.972656 46.964844 45.996094 26.152344 45.996094 26.152344 C 45.996094 26.152344 49.015625 26.152344 49.015625 26.152344 C 49.015625 26.152344 49.015625 47.613281 49.015625 47.613281 C 49.015625 47.613281 53.914062 47.613281 53.914062 47.613281 Z M 44.917969 47.613281 C 44.917969 47.613281 44.917969 33.140625 44.917969 33.140625 C 44.917969 33.140625 34.574219 47.613281 34.574219 47.613281 Z M 44.917969 47.613281 "/>
<path fill-rule="nonzero" fill="rgb(0%, 0%, 0%)" fill-opacity="1" d="M 79.238281 43.324219 C 79.238281 54.191406 75.414062 59.933594 68.414062 59.933594 C 61.328125 59.933594 57.589844 54.191406 57.589844 43.035156 C 57.589844 31.929688 61.277344 26.152344 68.414062 26.152344 C 75.601562 26.152344 79.238281 31.84375 79.238281 43.324219 Z M 75.035156 42.949219 C 75.035156 34.082031 72.835938 29.792969 68.414062 29.792969 C 63.992188 29.792969 61.789062 34.03125 61.789062 43.085938 C 61.789062 52.140625 63.992188 56.535156 68.328125 56.535156 C 72.886719 56.535156 75.035156 52.332031 75.035156 42.949219 Z M 75.035156 42.949219 "/>
<path fill="none" stroke-width="3.329894" stroke-linecap="butt" stroke-linejoin="miter" stroke="rgb(29.803467%, 29.803467%, 84.70459%)" stroke-opacity="1" stroke-miterlimit="2" d="M 164.96537 319.515625 L 171.655004 307.152344 L 178.344639 303.894531 L 185.030364 302.050781 L 191.719998 300.875 L 198.405723 300.066406 L 205.095357 299.46875 L 211.781082 298.984375 L 218.470717 298.566406 L 225.156441 298.1875 L 231.846076 297.835938 L 238.5318 297.503906 L 245.221435 297.195312 L 251.911069 296.914062 L 258.596794 296.65625 L 265.286429 296.421875 L 271.972153 296.21875 L 278.661788 296.042969 L 285.347513 295.894531 L 292.037147 295.773438 L 298.722872 295.683594 L 305.412506 295.617188 L 312.098231 295.578125 L 318.787865 295.5625 L 325.4775 295.570312 L 332.163225 295.605469 L 338.852859 295.65625 L 345.538584 295.726562 L 352.228218 295.820312 L 358.913943 295.929688 L 365.603578 296.054688 L 372.289302 296.191406 L 378.978937 296.34375 L 385.664661 296.507812 L 392.354296 296.683594 L 399.04393 296.867188 L 405.729655 297.0625 L 412.41929 297.265625 L 419.105014 297.480469 L 425.794649 297.699219 L 432.480374 297.925781 L 439.170008 298.164062 L 445.855733 298.402344 L 452.545367 298.648438 L 459.231092 298.898438 L 465.920726 299.152344 L 472.610361 299.414062 L 479.296086 299.679688 L 485.98572 299.949219 L 492.671445 300.21875 L 499.361079 300.496094 L 506.046804 300.777344 L 512.736439 301.0625 L 519.422163 301.347656 L 526.111798 301.636719 L 532.797522 301.925781 L 539.487157 302.214844 L 546.176791 302.507812 L 552.862516 302.800781 L 559.552151 303.09375 L 566.237875 303.390625 L 572.92751 303.683594 L 579.613235 303.976562 L 586.302869 304.269531 L 592.988594 304.558594 L 599.678228 304.847656 L 606.363953 305.136719 L 619.743222 305.699219 L 626.428947 305.980469 L 633.118581 306.257812 L 639.804306 306.527344 L 646.49394 306.796875 L 653.179665 307.0625 L 659.869299 307.324219 L 666.555024 307.578125 L 673.244659 307.832031 L 679.930383 308.078125 L 686.620018 308.320312 L 693.309652 308.558594 L 699.995377 308.792969 L 706.685012 309.023438 L 713.370736 309.242188 L 720.060371 309.460938 L 726.746095 309.675781 L 733.43573 309.886719 L 740.121455 310.089844 L 746.811089 310.289062 L 753.496814 310.484375 L 760.186448 310.675781 L 766.876083 310.859375 L 773.561808 311.039062 L 780.251442 311.214844 L 786.937167 311.386719 L 793.626801 311.554688 L 800.312526 311.714844 L 807.00216 311.875 L 813.687885 312.03125 L 820.37752 312.179688 L 827.063244 312.324219 L 833.752879 312.46875 L 840.442513 312.605469 L 847.128238 312.742188 L 853.817873 312.871094 L 860.503597 312.996094 L 867.193232 313.121094 L 873.878956 313.242188 L 880.568591 313.359375 L 887.254316 313.476562 L 893.94395 313.585938 L 900.629675 313.695312 L 907.319309 313.800781 L 914.008944 313.902344 L 920.694669 314.003906 L 927.384303 314.101562 L 934.070028 314.195312 L 940.759662 314.289062 L 947.445387 314.378906 L 954.135021 314.46875 L 960.820746 314.550781 L 967.510381 314.636719 L 974.196105 314.71875 L 980.88574 314.800781 L 987.575374 314.878906 L 994.261099 314.953125 L 1000.950734 315.027344 L 1007.636458 315.097656 L 1014.326093 315.167969 L 1021.011817 315.238281 L 1027.701452 315.304688 L 1034.387177 315.371094 L 1041.076811 315.433594 L 1047.762536 315.496094 L 1054.45217 315.558594 L 1061.141805 315.617188 L 1067.82753 315.675781 L 1074.517164 315.734375 L 1081.202889 315.792969 L 1087.892523 315.84375 L 1094.578248 315.898438 L 1101.267882 315.953125 L 1107.953607 316.003906 L 1114.643242 316.054688 L 1121.328966 316.105469 L 1134.708235 316.199219 L 1141.39396 316.25 L 1148.083594 316.292969 L 1154.769319 316.335938 L 1161.458954 316.382812 L 1168.144678 316.425781 L 1174.834313 316.46875 L 1181.520038 316.511719 L 1188.209672 316.550781 L 1194.895397 316.59375 L 1201.585031 316.628906 L 1208.274666 316.671875 L 1214.96039 316.707031 L 1221.650025 316.742188 L 1228.33575 316.78125 L 1235.025384 316.816406 L 1241.711109 316.855469 L 1248.400743 316.886719 L 1255.086468 316.921875 L 1261.776103 316.957031 L 1268.461827 316.988281 L 1281.841096 317.054688 L 1288.526821 317.085938 L 1295.216455 317.117188 L 1301.90218 317.148438 L 1308.591815 317.179688 L 1315.277539 317.207031 L 1321.967174 317.238281 L 1328.652899 317.265625 L 1335.342533 317.296875 L 1342.028258 317.320312 L 1348.717892 317.351562 L 1355.407527 317.378906 L 1362.093251 317.40625 L 1368.782886 317.429688 L 1375.468611 317.457031 L 1382.158245 317.484375 L 1388.84397 317.507812 L 1395.533604 317.535156 L 1402.219329 317.558594 L 1408.908964 317.582031 L 1415.594688 317.605469 L 1428.973957 317.65625 L 1435.659682 317.675781 L 1442.349316 317.699219 L 1449.035041 317.722656 L 1455.724676 317.746094 L 1462.4104 317.769531 L 1469.100035 317.789062 L 1475.78576 317.8125 L 1482.475394 317.832031 L 1489.161119 317.851562 L 1502.540388 317.894531 " transform="matrix(0.999097, 0, 0, 1, 0, 0)"/>
<path fill="none" stroke-width="3.329894" stroke-linecap="butt" stroke-linejoin="miter" stroke="rgb(84.312439%, 46.665955%, 100%)" stroke-opacity="1" stroke-miterlimit="2" d="M 164.96537 746.828125 L 171.655004 363.96875 L 178.344639 374.824219 L 185.030364 380.503906 L 191.719998 384.078125 L 198.405723 386.453125 L 205.095357 388.054688 L 211.781082 389.15625 L 218.470717 389.910156 L 225.156441 390.425781 L 231.846076 390.773438 L 238.5318 390.996094 L 245.221435 391.117188 L 251.911069 391.160156 L 258.596794 391.132812 L 265.286429 391.042969 L 271.972153 390.898438 L 278.661788 390.703125 L 285.347513 390.464844 L 292.037147 390.183594 L 298.722872 389.863281 L 305.412506 389.507812 L 312.098231 389.113281 L 318.787865 388.691406 L 325.4775 388.242188 L 332.163225 387.765625 L 338.852859 387.265625 L 345.538584 386.746094 L 352.228218 386.207031 L 358.913943 385.652344 L 365.603578 385.082031 L 372.289302 384.5 L 378.978937 383.90625 L 385.664661 383.308594 L 392.354296 382.707031 L 399.04393 382.097656 L 405.729655 381.488281 L 412.41929 380.882812 L 419.105014 380.273438 L 425.794649 379.667969 L 432.480374 379.066406 L 439.170008 378.472656 L 445.855733 377.882812 L 452.545367 377.304688 L 459.231092 376.730469 L 465.920726 376.164062 L 472.610361 375.609375 L 479.296086 375.066406 L 485.98572 374.53125 L 492.671445 374.007812 L 499.361079 373.496094 L 506.046804 372.996094 L 512.736439 372.511719 L 519.422163 372.035156 L 526.111798 371.570312 L 532.797522 371.117188 L 539.487157 370.675781 L 546.176791 370.25 L 552.862516 369.832031 L 559.552151 369.429688 L 566.237875 369.039062 L 572.92751 368.660156 L 579.613235 368.289062 L 586.302869 367.929688 L 592.988594 367.585938 L 599.678228 367.253906 L 606.363953 366.929688 L 613.053587 366.613281 L 619.743222 366.3125 L 626.428947 366.019531 L 633.118581 365.738281 L 639.804306 365.464844 L 646.49394 365.199219 L 653.179665 364.945312 L 659.869299 364.703125 L 666.555024 364.464844 L 673.244659 364.238281 L 679.930383 364.015625 L 686.620018 363.804688 L 693.309652 363.597656 L 699.995377 363.402344 L 706.685012 363.210938 L 713.370736 363.027344 L 720.060371 362.851562 L 726.746095 362.679688 L 733.43573 362.519531 L 740.121455 362.359375 L 746.811089 362.207031 L 753.496814 362.0625 L 760.186448 361.917969 L 766.876083 361.785156 L 773.561808 361.652344 L 780.251442 361.527344 L 786.937167 361.402344 L 793.626801 361.285156 L 800.312526 361.171875 L 807.00216 361.0625 L 813.687885 360.957031 L 820.37752 360.855469 L 827.063244 360.757812 L 833.752879 360.660156 L 840.442513 360.570312 L 847.128238 360.484375 L 853.817873 360.394531 L 860.503597 360.316406 L 867.193232 360.238281 L 873.878956 360.15625 L 880.568591 360.085938 L 887.254316 360.011719 L 893.94395 359.941406 L 900.629675 359.875 L 914.008944 359.746094 L 920.694669 359.6875 L 927.384303 359.628906 L 934.070028 359.570312 L 940.759662 359.515625 L 947.445387 359.464844 L 954.135021 359.410156 L 960.820746 359.359375 L 967.510381 359.3125 L 974.196105 359.265625 L 987.575374 359.175781 L 994.261099 359.128906 L 1000.950734 359.089844 L 1007.636458 359.050781 L 1014.326093 359.007812 L 1021.011817 358.972656 L 1027.701452 358.933594 L 1034.387177 358.898438 L 1041.076811 358.863281 L 1047.762536 358.828125 L 1061.141805 358.761719 L 1067.82753 358.730469 L 1074.517164 358.699219 L 1081.202889 358.671875 L 1087.892523 358.640625 L 1094.578248 358.613281 L 1101.267882 358.585938 L 1107.953607 358.558594 L 1114.643242 358.53125 L 1121.328966 358.507812 L 1134.708235 358.460938 L 1141.39396 358.433594 L 1148.083594 358.414062 L 1154.769319 358.390625 L 1161.458954 358.367188 L 1168.144678 358.347656 L 1174.834313 358.328125 L 1181.520038 358.304688 L 1188.209672 358.285156 L 1194.895397 358.269531 L 1208.274666 358.230469 L 1214.96039 358.210938 L 1221.650025 358.191406 L 1228.33575 358.175781 L 1235.025384 358.160156 L 1241.711109 358.144531 L 1248.400743 358.128906 L 1255.086468 358.109375 L 1261.776103 358.09375 L 1268.461827 358.082031 L 1281.841096 358.050781 L 1288.526821 358.039062 L 1295.216455 358.023438 L 1301.90218 358.007812 L 1308.591815 357.996094 L 1315.277539 357.984375 L 1321.967174 357.96875 L 1328.652899 357.957031 L 1335.342533 357.945312 L 1342.028258 357.933594 L 1355.407527 357.910156 L 1362.093251 357.902344 L 1368.782886 357.886719 L 1375.468611 357.875 L 1382.158245 357.863281 L 1388.84397 357.855469 L 1395.533604 357.847656 L 1402.219329 357.835938 L 1408.908964 357.824219 L 1415.594688 357.816406 L 1422.284323 357.804688 L 1428.973957 357.796875 L 1435.659682 357.785156 L 1442.349316 357.777344 L 1449.035041 357.769531 L 1455.724676 357.761719 L 1462.4104 357.75 L 1469.100035 357.742188 L 1475.78576 357.734375 L 1482.475394 357.726562 L 1489.161119 357.71875 L 1495.850753 357.710938 L 1502.540388 357.707031 " transform="matrix(0.999097, 0, 0, 1, 0, 0)"/>
<path fill="none" stroke-width="3.329894" stroke-linecap="butt" stroke-linejoin="miter" stroke="rgb(29.803467%, 84.70459%, 84.70459%)" stroke-opacity="1" stroke-miterlimit="2" d="M 164.96537 455.359375 L 171.655004 181.152344 L 178.344639 248.652344 L 185.030364 287.6875 L 191.719998 312.273438 L 198.405723 328.472656 L 205.095357 339.480469 L 211.781082 347.152344 L 218.470717 352.628906 L 225.156441 356.628906 L 231.846076 359.621094 L 238.5318 361.910156 L 245.221435 363.699219 L 251.911069 365.132812 L 258.596794 366.296875 L 265.286429 367.265625 L 271.972153 368.082031 L 278.661788 368.773438 L 285.347513 369.371094 L 292.037147 369.886719 L 298.722872 370.332031 L 305.412506 370.71875 L 312.098231 371.050781 L 318.787865 371.332031 L 325.4775 371.570312 L 332.163225 371.765625 L 338.852859 371.921875 L 345.538584 372.042969 L 352.228218 372.125 L 358.913943 372.179688 L 365.603578 372.195312 L 372.289302 372.179688 L 378.978937 372.136719 L 385.664661 372.066406 L 392.354296 371.96875 L 399.04393 371.847656 L 405.729655 371.703125 L 412.41929 371.535156 L 419.105014 371.351562 L 425.794649 371.148438 L 432.480374 370.929688 L 439.170008 370.699219 L 445.855733 370.453125 L 452.545367 370.195312 L 459.231092 369.929688 L 465.920726 369.652344 L 472.610361 369.371094 L 479.296086 369.085938 L 485.98572 368.796875 L 492.671445 368.5 L 499.361079 368.207031 L 506.046804 367.914062 L 512.736439 367.613281 L 519.422163 367.320312 L 526.111798 367.027344 L 532.797522 366.738281 L 539.487157 366.449219 L 546.176791 366.164062 L 552.862516 365.886719 L 559.552151 365.609375 L 566.237875 365.339844 L 572.92751 365.074219 L 579.613235 364.820312 L 586.302869 364.5625 L 592.988594 364.316406 L 599.678228 364.078125 L 606.363953 363.84375 L 613.053587 363.613281 L 619.743222 363.394531 L 626.428947 363.179688 L 633.118581 362.972656 L 639.804306 362.769531 L 646.49394 362.574219 L 653.179665 362.382812 L 659.869299 362.203125 L 666.555024 362.027344 L 673.244659 361.855469 L 679.930383 361.691406 L 686.620018 361.535156 L 693.309652 361.382812 L 699.995377 361.234375 L 706.685012 361.09375 L 713.370736 360.960938 L 720.060371 360.824219 L 726.746095 360.703125 L 733.43573 360.582031 L 740.121455 360.464844 L 746.811089 360.351562 L 753.496814 360.246094 L 760.186448 360.140625 L 766.876083 360.042969 L 773.561808 359.949219 L 780.251442 359.859375 L 786.937167 359.769531 L 793.626801 359.683594 L 800.312526 359.605469 L 807.00216 359.523438 L 813.687885 359.453125 L 820.37752 359.378906 L 827.063244 359.3125 L 833.752879 359.242188 L 840.442513 359.179688 L 847.128238 359.121094 L 853.817873 359.0625 L 860.503597 359.003906 L 867.193232 358.953125 L 873.878956 358.902344 L 880.568591 358.847656 L 887.254316 358.800781 L 893.94395 358.753906 L 900.629675 358.710938 L 907.319309 358.667969 L 914.008944 358.628906 L 920.694669 358.585938 L 927.384303 358.546875 L 934.070028 358.511719 L 940.759662 358.476562 L 947.445387 358.441406 L 954.135021 358.410156 L 960.820746 358.378906 L 967.510381 358.347656 L 974.196105 358.316406 L 987.575374 358.261719 L 994.261099 358.234375 L 1000.950734 358.207031 L 1007.636458 358.183594 L 1014.326093 358.160156 L 1021.011817 358.136719 L 1027.701452 358.117188 L 1034.387177 358.09375 L 1041.076811 358.074219 L 1047.762536 358.050781 L 1061.141805 358.011719 L 1067.82753 357.996094 L 1074.517164 357.976562 L 1081.202889 357.960938 L 1087.892523 357.941406 L 1094.578248 357.929688 L 1101.267882 357.914062 L 1107.953607 357.898438 L 1114.643242 357.882812 L 1121.328966 357.867188 L 1134.708235 357.839844 L 1141.39396 357.828125 L 1148.083594 357.816406 L 1154.769319 357.800781 L 1161.458954 357.792969 L 1168.144678 357.78125 L 1174.834313 357.769531 L 1181.520038 357.757812 L 1188.209672 357.75 L 1194.895397 357.738281 L 1208.274666 357.714844 L 1214.96039 357.707031 L 1221.650025 357.699219 L 1228.33575 357.6875 L 1235.025384 357.679688 L 1241.711109 357.671875 L 1248.400743 357.664062 L 1255.086468 357.65625 L 1261.776103 357.648438 L 1268.461827 357.640625 L 1281.841096 357.625 L 1288.526821 357.617188 L 1295.216455 357.609375 L 1301.90218 357.605469 L 1308.591815 357.597656 L 1315.277539 357.59375 L 1321.967174 357.585938 L 1328.652899 357.578125 L 1335.342533 357.574219 L 1342.028258 357.570312 L 1355.407527 357.558594 L 1362.093251 357.554688 L 1368.782886 357.546875 L 1375.468611 357.542969 L 1382.158245 357.539062 L 1388.84397 357.53125 L 1395.533604 357.527344 L 1402.219329 357.523438 L 1408.908964 357.519531 L 1415.594688 357.515625 L 1422.284323 357.507812 L 1428.973957 357.507812 L 1435.659682 357.5 L 1442.349316 357.5 L 1449.035041 357.492188 L 1455.724676 357.488281 L 1462.4104 357.484375 L 1469.100035 357.480469 L 1475.78576 357.476562 L 1482.475394 357.472656 L 1489.161119 357.472656 L 1495.850753 357.464844 L 1502.540388 357.460938 " transform="matrix(0.999097, 0, 0, 1, 0, 0)"/>
<path fill="none" stroke-width="3.329894" stroke-linecap="butt" stroke-linejoin="miter" stroke="rgb(29.803467%, 80.39093%, 29.803467%)" stroke-opacity="1" stroke-miterlimit="2" d="M 164.96537 65.773438 L 171.655004 174.425781 L 178.344639 231.070312 L 185.030364 264.429688 L 191.719998 285.441406 L 198.405723 299.265625 L 205.095357 308.667969 L 211.781082 315.246094 L 218.470717 319.96875 L 225.156441 323.449219 L 231.846076 326.089844 L 238.5318 328.15625 L 245.221435 329.824219 L 251.911069 331.214844 L 258.596794 332.410156 L 265.286429 333.46875 L 271.972153 334.429688 L 278.661788 335.316406 L 285.347513 336.152344 L 292.037147 336.945312 L 298.722872 337.714844 L 305.412506 338.457031 L 312.098231 339.179688 L 318.787865 339.882812 L 325.4775 340.574219 L 332.163225 341.246094 L 338.852859 341.902344 L 345.538584 342.542969 L 352.228218 343.167969 L 358.913943 343.769531 L 365.603578 344.359375 L 372.289302 344.925781 L 378.978937 345.472656 L 385.664661 346.003906 L 392.354296 346.511719 L 399.04393 346.996094 L 405.729655 347.460938 L 412.41929 347.902344 L 419.105014 348.324219 L 425.794649 348.730469 L 432.480374 349.109375 L 439.170008 349.472656 L 445.855733 349.816406 L 452.545367 350.140625 L 459.231092 350.445312 L 465.920726 350.734375 L 472.610361 351.007812 L 479.296086 351.269531 L 485.98572 351.511719 L 492.671445 351.742188 L 499.361079 351.957031 L 506.046804 352.160156 L 512.736439 352.351562 L 519.422163 352.535156 L 526.111798 352.703125 L 532.797522 352.867188 L 539.487157 353.019531 L 546.176791 353.160156 L 552.862516 353.300781 L 559.552151 353.425781 L 566.237875 353.546875 L 572.92751 353.664062 L 579.613235 353.777344 L 586.302869 353.878906 L 592.988594 353.976562 L 599.678228 354.070312 L 606.363953 354.160156 L 613.053587 354.246094 L 619.743222 354.328125 L 626.428947 354.40625 L 633.118581 354.476562 L 639.804306 354.550781 L 646.49394 354.617188 L 653.179665 354.683594 L 659.869299 354.746094 L 666.555024 354.808594 L 673.244659 354.867188 L 679.930383 354.921875 L 686.620018 354.976562 L 693.309652 355.027344 L 699.995377 355.078125 L 706.685012 355.128906 L 713.370736 355.175781 L 720.060371 355.222656 L 726.746095 355.265625 L 733.43573 355.308594 L 740.121455 355.347656 L 746.811089 355.390625 L 753.496814 355.429688 L 766.876083 355.507812 L 773.561808 355.542969 L 780.251442 355.578125 L 786.937167 355.613281 L 793.626801 355.644531 L 800.312526 355.675781 L 807.00216 355.710938 L 813.687885 355.738281 L 820.37752 355.773438 L 827.063244 355.796875 L 833.752879 355.828125 L 840.442513 355.855469 L 847.128238 355.882812 L 853.817873 355.910156 L 860.503597 355.9375 L 867.193232 355.960938 L 873.878956 355.988281 L 880.568591 356.011719 L 887.254316 356.035156 L 893.94395 356.058594 L 900.629675 356.078125 L 914.008944 356.121094 L 920.694669 356.144531 L 927.384303 356.167969 L 934.070028 356.183594 L 940.759662 356.207031 L 947.445387 356.226562 L 954.135021 356.246094 L 960.820746 356.261719 L 967.510381 356.28125 L 974.196105 356.296875 L 980.88574 356.316406 L 987.575374 356.332031 L 994.261099 356.351562 L 1000.950734 356.367188 L 1007.636458 356.382812 L 1014.326093 356.394531 L 1021.011817 356.414062 L 1027.701452 356.425781 L 1034.387177 356.441406 L 1041.076811 356.457031 L 1047.762536 356.46875 L 1061.141805 356.496094 L 1067.82753 356.507812 L 1074.517164 356.523438 L 1081.202889 356.535156 L 1087.892523 356.546875 L 1094.578248 356.5625 L 1101.267882 356.570312 L 1107.953607 356.582031 L 1114.643242 356.597656 L 1121.328966 356.605469 L 1134.708235 356.628906 L 1141.39396 356.640625 L 1148.083594 356.648438 L 1154.769319 356.660156 L 1161.458954 356.667969 L 1168.144678 356.679688 L 1174.834313 356.6875 L 1181.520038 356.699219 L 1188.209672 356.707031 L 1194.895397 356.714844 L 1201.585031 356.726562 L 1208.274666 356.734375 L 1214.96039 356.742188 L 1221.650025 356.75 L 1228.33575 356.757812 L 1235.025384 356.765625 L 1241.711109 356.773438 L 1248.400743 356.78125 L 1255.086468 356.789062 L 1261.776103 356.800781 L 1268.461827 356.804688 L 1281.841096 356.820312 L 1288.526821 356.824219 L 1295.216455 356.835938 L 1301.90218 356.839844 L 1308.591815 356.847656 L 1315.277539 356.851562 L 1321.967174 356.859375 L 1328.652899 356.867188 L 1335.342533 356.871094 L 1342.028258 356.878906 L 1355.407527 356.890625 L 1362.093251 356.894531 L 1368.782886 356.898438 L 1375.468611 356.90625 L 1382.158245 356.910156 L 1388.84397 356.914062 L 1395.533604 356.921875 L 1402.219329 356.925781 L 1408.908964 356.929688 L 1415.594688 356.933594 L 1428.973957 356.945312 L 1435.659682 356.949219 L 1442.349316 356.957031 L 1449.035041 356.960938 L 1455.724676 356.964844 L 1462.4104 356.96875 L 1469.100035 356.972656 L 1475.78576 356.976562 L 1482.475394 356.984375 L 1489.161119 356.984375 L 1502.540388 356.996094 " transform="matrix(0.999097, 0, 0, 1, 0, 0)"/>
<path fill-rule="nonzero" fill="rgb(100%, 100%, 100%)" fill-opacity="1" stroke-width="2.086862" stroke-linecap="butt" stroke-linejoin="miter" stroke="rgb(0%, 0%, 0%)" stroke-opacity="1" stroke-miterlimit="2" d="M 1191.286669 45.777344 L 1549.187979 45.777344 L 1549.187979 274.480469 L 1191.286669 274.480469 Z M 1191.286669 45.777344 " transform="matrix(0.999097, 0, 0, 1, 0, 0)"/>
<path fill="none" stroke-width="1.664951" stroke-linecap="butt" stroke-linejoin="miter" stroke="rgb(0%, 0%, 0%)" stroke-opacity="1" stroke-miterlimit="2" d="M 164.96537 781.574219 L 164.96537 789.886719 " transform="matrix(0.999097, 0, 0, 1, 0, 0)"/>
<path fill="none" stroke-width="1.664951" stroke-linecap="butt" stroke-linejoin="miter" stroke="rgb(0%, 0%, 0%)" stroke-opacity="1" stroke-miterlimit="2" d="M 833.752879 781.574219 L 833.752879 789.886719 " transform="matrix(0.999097, 0, 0, 1, 0, 0)"/>
<path fill="none" stroke-width="1.664951" stroke-linecap="butt" stroke-linejoin="miter" stroke="rgb(0%, 0%, 0%)" stroke-opacity="1" stroke-miterlimit="2" d="M 1502.536478 781.574219 L 1502.536478 789.886719 " transform="matrix(0.999097, 0, 0, 1, 0, 0)"/>
<path fill="none" stroke-width="1.664951" stroke-linecap="butt" stroke-linejoin="miter" stroke="rgb(0%, 0%, 0%)" stroke-opacity="1" stroke-miterlimit="2" d="M 97.08767 671.933594 L 85.076824 671.933594 " transform="matrix(0.999097, 0, 0, 1, 0, 0)"/>
<path fill="none" stroke-width="1.664951" stroke-linecap="butt" stroke-linejoin="miter" stroke="rgb(0%, 0%, 0%)" stroke-opacity="1" stroke-miterlimit="2" d="M 97.08767 514.589844 L 85.076824 514.589844 " transform="matrix(0.999097, 0, 0, 1, 0, 0)"/>
<path fill="none" stroke-width="1.664951" stroke-linecap="butt" stroke-linejoin="miter" stroke="rgb(0%, 0%, 0%)" stroke-opacity="1" stroke-miterlimit="2" d="M 97.08767 357.246094 L 85.076824 357.246094 " transform="matrix(0.999097, 0, 0, 1, 0, 0)"/>
<path fill="none" stroke-width="1.664951" stroke-linecap="butt" stroke-linejoin="miter" stroke="rgb(0%, 0%, 0%)" stroke-opacity="1" stroke-miterlimit="2" d="M 97.08767 199.902344 L 85.076824 199.902344 " transform="matrix(0.999097, 0, 0, 1, 0, 0)"/>
<path fill="none" stroke-width="1.664951" stroke-linecap="butt" stroke-linejoin="miter" stroke="rgb(0%, 0%, 0%)" stroke-opacity="1" stroke-miterlimit="2" d="M 97.08767 42.558594 L 85.076824 42.558594 " transform="matrix(0.999097, 0, 0, 1, 0, 0)"/>
<path fill="none" stroke-width="4.003615" stroke-linecap="butt" stroke-linejoin="miter" stroke="rgb(29.803467%, 29.803467%, 84.70459%)" stroke-opacity="1" stroke-miterlimit="2" d="M 1210.804294 88.078125 L 1250.840446 88.078125 " transform="matrix(0.999097, 0, 0, 1, 0, 0)"/>
<path fill="none" stroke-width="4.003615" stroke-linecap="butt" stroke-linejoin="miter" stroke="rgb(84.312439%, 46.665955%, 100%)" stroke-opacity="1" stroke-miterlimit="2" d="M 1210.804294 134.121094 L 1250.840446 134.121094 " transform="matrix(0.999097, 0, 0, 1, 0, 0)"/>
<path fill="none" stroke-width="4.003615" stroke-linecap="butt" stroke-linejoin="miter" stroke="rgb(29.803467%, 84.70459%, 84.70459%)" stroke-opacity="1" stroke-miterlimit="2" d="M 1210.804294 180.164062 L 1250.840446 180.164062 " transform="matrix(0.999097, 0, 0, 1, 0, 0)"/>
<path fill="none" stroke-width="4.003615" stroke-linecap="butt" stroke-linejoin="miter" stroke="rgb(29.803467%, 80.39093%, 29.803467%)" stroke-opacity="1" stroke-miterlimit="2" d="M 1210.804294 226.203125 L 1250.840446 226.203125 " transform="matrix(0.999097, 0, 0, 1, 0, 0)"/>
<path fill-rule="nonzero" fill="rgb(0%, 0%, 0%)" fill-opacity="1" d="M 1279.332031 99.753906 C 1279.332031 99.753906 1262.597656 99.753906 1262.597656 99.753906 C 1262.597656 99.753906 1262.597656 76.402344 1262.597656 76.402344 C 1262.597656 76.402344 1278.757812 76.402344 1278.757812 76.402344 C 1278.757812 76.402344 1278.757812 79.03125 1278.757812 79.03125 C 1278.757812 79.03125 1265.574219 79.03125 1265.574219 79.03125 C 1265.574219 79.03125 1265.574219 86.488281 1265.574219 86.488281 C 1265.574219 86.488281 1278.277344 86.488281 1278.277344 86.488281 C 1278.277344 86.488281 1278.277344 89.117188 1278.277344 89.117188 C 1278.277344 89.117188 1265.574219 89.117188 1265.574219 89.117188 C 1265.574219 89.117188 1265.574219 97.128906 1265.574219 97.128906 C 1265.574219 97.128906 1279.332031 97.128906 1279.332031 97.128906 Z M 1279.332031 99.753906 "/>
<path fill-rule="nonzero" fill="rgb(0%, 0%, 0%)" fill-opacity="1" d="M 1296.640625 99.753906 C 1296.640625 99.753906 1293.980469 99.753906 1293.980469 99.753906 C 1293.980469 99.753906 1293.980469 88.132812 1293.980469 88.132812 C 1293.980469 86.113281 1292.644531 84.824219 1290.523438 84.824219 C 1287.804688 84.824219 1285.953125 87.074219 1285.953125 90.5 C 1285.953125 90.5 1285.953125 99.753906 1285.953125 99.753906 C 1285.953125 99.753906 1283.292969 99.753906 1283.292969 99.753906 C 1283.292969 99.753906 1283.292969 82.96875 1283.292969 82.96875 C 1283.292969 82.96875 1285.753906 82.96875 1285.753906 82.96875 C 1285.753906 82.96875 1285.753906 85.785156 1285.753906 85.785156 C 1287.230469 83.453125 1288.835938 82.488281 1291.332031 82.488281 C 1294.554688 82.488281 1296.640625 84.285156 1296.640625 87.074219 Z M 1296.640625 99.753906 "/>
<path fill-rule="nonzero" fill="rgb(0%, 0%, 0%)" fill-opacity="1" d="M 1306.980469 99.753906 C 1306.078125 99.917969 1305.445312 99.976562 1304.800781 99.976562 C 1302.714844 99.976562 1301.566406 99.015625 1301.566406 97.316406 C 1301.566406 97.316406 1301.566406 85.152344 1301.566406 85.152344 C 1301.566406 85.152344 1299.292969 85.152344 1299.292969 85.152344 C 1299.292969 85.152344 1299.292969 82.96875 1299.292969 82.96875 C 1299.292969 82.96875 1301.566406 82.96875 1301.566406 82.96875 C 1301.566406 82.96875 1301.566406 78.359375 1301.566406 78.359375 C 1301.566406 78.359375 1304.226562 78.359375 1304.226562 78.359375 C 1304.226562 78.359375 1304.226562 82.96875 1304.226562 82.96875 C 1304.226562 82.96875 1306.980469 82.96875 1306.980469 82.96875 C 1306.980469 82.96875 1306.980469 85.152344 1306.980469 85.152344 C 1306.980469 85.152344 1304.226562 85.152344 1304.226562 85.152344 C 1304.226562 85.152344 1304.226562 96.128906 1304.226562 96.128906 C 1304.226562 97.316406 1304.542969 97.644531 1305.691406 97.644531 C 1306.207031 97.644531 1306.628906 97.609375 1306.980469 97.515625 Z M 1306.980469 99.753906 "/>
<path fill-rule="nonzero" fill="rgb(0%, 0%, 0%)" fill-opacity="1" d="M 1318.023438 85.304688 C 1313.886719 85.375 1312.644531 87.261719 1312.644531 91.039062 C 1312.644531 91.039062 1312.644531 99.753906 1312.644531 99.753906 C 1312.644531 99.753906 1309.984375 99.753906 1309.984375 99.753906 C 1309.984375 99.753906 1309.984375 82.96875 1309.984375 82.96875 C 1309.984375 82.96875 1312.421875 82.96875 1312.421875 82.96875 C 1312.421875 82.96875 1312.421875 86.007812 1312.421875 86.007812 C 1313.957031 83.511719 1315.269531 82.488281 1316.992188 82.488281 C 1317.34375 82.488281 1317.566406 82.523438 1318.023438 82.582031 Z M 1334.726562 91.484375 C 1334.726562 97 1331.84375 100.234375 1327.144531 100.234375 C 1322.375 100.234375 1319.550781 97 1319.550781 91.355469 C 1319.550781 85.726562 1322.398438 82.488281 1327.109375 82.488281 C 1331.9375 82.488281 1334.726562 85.691406 1334.726562 91.484375 Z M 1331.9375 91.460938 C 1331.9375 87.296875 1330.144531 84.953125 1327.144531 84.953125 C 1324.167969 84.953125 1322.339844 87.320312 1322.339844 91.355469 C 1322.339844 95.425781 1324.167969 97.773438 1327.144531 97.773438 C 1330.085938 97.773438 1331.9375 95.402344 1331.9375 91.460938 Z M 1352.925781 91.519531 C 1352.925781 96.871094 1350.078125 100.234375 1345.765625 100.234375 C 1343.585938 100.234375 1342.015625 99.460938 1340.609375 97.738281 C 1340.609375 97.738281 1340.609375 106.734375 1340.609375 106.734375 C 1340.609375 106.734375 1337.949219 106.734375 1337.949219 106.734375 C 1337.949219 106.734375 1337.949219 82.96875 1337.949219 82.96875 C 1337.949219 82.96875 1340.386719 82.96875 1340.386719 82.96875 C 1340.386719 82.96875 1340.386719 85.503906 1340.386719 85.503906 C 1341.628906 83.511719 1343.457031 82.488281 1345.730469 82.488281 C 1350.171875 82.488281 1352.925781 85.878906 1352.925781 91.519531 Z M 1350.148438 91.460938 C 1350.148438 87.449219 1348.226562 84.988281 1345.285156 84.988281 C 1342.460938 84.988281 1340.609375 87.542969 1340.609375 91.484375 C 1340.609375 95.425781 1342.460938 97.738281 1345.285156 97.738281 C 1348.191406 97.738281 1350.148438 95.273438 1350.148438 91.460938 Z M 1369.277344 82.96875 C 1369.277344 82.96875 1361.824219 103.273438 1361.824219 103.273438 C 1360.933594 105.679688 1359.398438 106.734375 1357.5 106.734375 C 1356.796875 106.734375 1356.257812 106.605469 1355.707031 106.324219 C 1355.707031 106.324219 1355.707031 103.917969 1355.707031 103.917969 C 1356.292969 104.046875 1356.738281 104.105469 1357.125 104.105469 C 1358.273438 104.105469 1358.8125 103.660156 1359.269531 102.476562 C 1359.269531 102.476562 1360.289062 99.8125 1360.289062 99.8125 C 1360.289062 99.8125 1354.628906 82.96875 1354.628906 82.96875 C 1354.628906 82.96875 1357.476562 82.96875 1357.476562 82.96875 C 1357.476562 82.96875 1361.765625 96.035156 1361.765625 96.035156 C 1361.765625 96.035156 1366.40625 82.96875 1366.40625 82.96875 Z M 1369.277344 82.96875 "/>
<path fill-rule="nonzero" fill="rgb(0%, 0%, 0%)" fill-opacity="1" d="M 1279.332031 145.796875 C 1279.332031 145.796875 1262.597656 145.796875 1262.597656 145.796875 C 1262.597656 145.796875 1262.597656 122.441406 1262.597656 122.441406 C 1262.597656 122.441406 1278.757812 122.441406 1278.757812 122.441406 C 1278.757812 122.441406 1278.757812 125.070312 1278.757812 125.070312 C 1278.757812 125.070312 1265.574219 125.070312 1265.574219 125.070312 C 1265.574219 125.070312 1265.574219 132.53125 1265.574219 132.53125 C 1265.574219 132.53125 1278.277344 132.53125 1278.277344 132.53125 C 1278.277344 132.53125 1278.277344 135.15625 1278.277344 135.15625 C 1278.277344 135.15625 1265.574219 135.15625 1265.574219 135.15625 C 1265.574219 135.15625 1265.574219 143.167969 1265.574219 143.167969 C 1265.574219 143.167969 1279.332031 143.167969 1279.332031 143.167969 Z M 1296.640625 145.796875 C 1296.640625 145.796875 1293.980469 145.796875 1293.980469 145.796875 C 1293.980469 145.796875 1293.980469 134.171875 1293.980469 134.171875 C 1293.980469 132.15625 1292.644531 130.863281 1290.523438 130.863281 C 1287.804688 130.863281 1285.953125 133.117188 1285.953125 136.542969 C 1285.953125 136.542969 1285.953125 145.796875 1285.953125 145.796875 C 1285.953125 145.796875 1283.292969 145.796875 1283.292969 145.796875 C 1283.292969 145.796875 1283.292969 129.011719 1283.292969 129.011719 C 1283.292969 129.011719 1285.753906 129.011719 1285.753906 129.011719 C 1285.753906 129.011719 1285.753906 131.824219 1285.753906 131.824219 C 1287.230469 129.492188 1288.835938 128.53125 1291.332031 128.53125 C 1294.554688 128.53125 1296.640625 130.324219 1296.640625 133.117188 Z M 1296.640625 145.796875 "/>
<path fill-rule="nonzero" fill="rgb(0%, 0%, 0%)" fill-opacity="1" d="M 1306.980469 145.796875 C 1306.078125 145.960938 1305.445312 146.019531 1304.800781 146.019531 C 1302.714844 146.019531 1301.566406 145.058594 1301.566406 143.355469 C 1301.566406 143.355469 1301.566406 131.191406 1301.566406 131.191406 C 1301.566406 131.191406 1299.292969 131.191406 1299.292969 131.191406 C 1299.292969 131.191406 1299.292969 129.011719 1299.292969 129.011719 C 1299.292969 129.011719 1301.566406 129.011719 1301.566406 129.011719 C 1301.566406 129.011719 1301.566406 124.402344 1301.566406 124.402344 C 1301.566406 124.402344 1304.226562 124.402344 1304.226562 124.402344 C 1304.226562 124.402344 1304.226562 129.011719 1304.226562 129.011719 C 1304.226562 129.011719 1306.980469 129.011719 1306.980469 129.011719 C 1306.980469 129.011719 1306.980469 131.191406 1306.980469 131.191406 C 1306.980469 131.191406 1304.226562 131.191406 1304.226562 131.191406 C 1304.226562 131.191406 1304.226562 142.171875 1304.226562 142.171875 C 1304.226562 143.355469 1304.542969 143.683594 1305.691406 143.683594 C 1306.207031 143.683594 1306.628906 143.648438 1306.980469 143.554688 Z M 1306.980469 145.796875 "/>
<path fill-rule="nonzero" fill="rgb(0%, 0%, 0%)" fill-opacity="1" d="M 1318.023438 131.34375 C 1313.886719 131.414062 1312.644531 133.304688 1312.644531 137.082031 C 1312.644531 137.082031 1312.644531 145.796875 1312.644531 145.796875 C 1312.644531 145.796875 1309.984375 145.796875 1309.984375 145.796875 C 1309.984375 145.796875 1309.984375 129.011719 1309.984375 129.011719 C 1309.984375 129.011719 1312.421875 129.011719 1312.421875 129.011719 C 1312.421875 129.011719 1312.421875 132.050781 1312.421875 132.050781 C 1313.957031 129.550781 1315.269531 128.53125 1316.992188 128.53125 C 1317.34375 128.53125 1317.566406 128.566406 1318.023438 128.625 Z M 1334.726562 137.527344 C 1334.726562 143.039062 1331.84375 146.277344 1327.144531 146.277344 C 1322.375 146.277344 1319.550781 143.039062 1319.550781 137.398438 C 1319.550781 131.765625 1322.398438 128.53125 1327.109375 128.53125 C 1331.9375 128.53125 1334.726562 131.730469 1334.726562 137.527344 Z M 1331.9375 137.503906 C 1331.9375 133.339844 1330.144531 130.992188 1327.144531 130.992188 C 1324.167969 130.992188 1322.339844 133.363281 1322.339844 137.398438 C 1322.339844 141.46875 1324.167969 143.8125 1327.144531 143.8125 C 1330.085938 143.8125 1331.9375 141.445312 1331.9375 137.503906 Z M 1331.9375 137.503906 "/>
<path fill-rule="nonzero" fill="rgb(0%, 0%, 0%)" fill-opacity="1" d="M 1352.925781 137.5625 C 1352.925781 142.910156 1350.078125 146.277344 1345.765625 146.277344 C 1343.585938 146.277344 1342.015625 145.503906 1340.609375 143.777344 C 1340.609375 143.777344 1340.609375 152.773438 1340.609375 152.773438 C 1340.609375 152.773438 1337.949219 152.773438 1337.949219 152.773438 C 1337.949219 152.773438 1337.949219 129.011719 1337.949219 129.011719 C 1337.949219 129.011719 1340.386719 129.011719 1340.386719 129.011719 C 1340.386719 129.011719 1340.386719 131.542969 1340.386719 131.542969 C 1341.628906 129.550781 1343.457031 128.53125 1345.730469 128.53125 C 1350.171875 128.53125 1352.925781 131.917969 1352.925781 137.5625 Z M 1350.148438 137.503906 C 1350.148438 133.492188 1348.226562 131.027344 1345.285156 131.027344 C 1342.460938 131.027344 1340.609375 133.585938 1340.609375 137.527344 C 1340.609375 141.46875 1342.460938 143.777344 1345.285156 143.777344 C 1348.191406 143.777344 1350.148438 141.316406 1350.148438 137.503906 Z M 1350.148438 137.503906 "/>
<path fill-rule="nonzero" fill="rgb(0%, 0%, 0%)" fill-opacity="1" d="M 1369.277344 129.011719 C 1369.277344 129.011719 1361.824219 149.316406 1361.824219 149.316406 C 1360.933594 151.71875 1359.398438 152.773438 1357.5 152.773438 C 1356.796875 152.773438 1356.257812 152.644531 1355.707031 152.363281 C 1355.707031 152.363281 1355.707031 149.960938 1355.707031 149.960938 C 1356.292969 150.089844 1356.738281 150.148438 1357.125 150.148438 C 1358.273438 150.148438 1358.8125 149.703125 1359.269531 148.515625 C 1359.269531 148.515625 1360.289062 145.855469 1360.289062 145.855469 C 1360.289062 145.855469 1354.628906 129.011719 1354.628906 129.011719 C 1354.628906 129.011719 1357.476562 129.011719 1357.476562 129.011719 C 1357.476562 129.011719 1361.765625 142.078125 1361.765625 142.078125 C 1361.765625 142.078125 1366.40625 129.011719 1366.40625 129.011719 Z M 1369.277344 129.011719 "/>
<path fill-rule="nonzero" fill="rgb(0%, 0%, 0%)" fill-opacity="1" d="M 1394.152344 140.023438 C 1393.824219 143.871094 1391.304688 146.277344 1387.296875 146.277344 C 1382.75 146.277344 1379.878906 142.980469 1379.878906 137.5625 C 1379.878906 131.992188 1382.820312 128.53125 1387.332031 128.53125 C 1391.082031 128.53125 1393.636719 130.546875 1393.953125 134.652344 C 1393.953125 134.652344 1391.269531 134.652344 1391.269531 134.652344 C 1390.953125 132.308594 1389.535156 130.992188 1387.296875 130.992188 C 1384.390625 130.992188 1382.65625 133.363281 1382.65625 137.5625 C 1382.65625 141.539062 1384.414062 143.8125 1387.367188 143.8125 C 1389.640625 143.8125 1391.011719 142.722656 1391.457031 140.023438 Z M 1394.152344 140.023438 "/>
<path fill-rule="nonzero" fill="rgb(0%, 0%, 0%)" fill-opacity="1" d="M 1410.429688 145.796875 C 1410.429688 145.796875 1407.78125 145.796875 1407.78125 145.796875 C 1407.78125 145.796875 1407.78125 134.171875 1407.78125 134.171875 C 1407.78125 131.957031 1406.210938 130.863281 1404.324219 130.863281 C 1401.570312 130.863281 1399.777344 133.117188 1399.777344 136.542969 C 1399.777344 136.542969 1399.777344 145.796875 1399.777344 145.796875 C 1399.777344 145.796875 1397.117188 145.796875 1397.117188 145.796875 C 1397.117188 145.796875 1397.117188 122.441406 1397.117188 122.441406 C 1397.117188 122.441406 1399.777344 122.441406 1399.777344 122.441406 C 1399.777344 122.441406 1399.777344 131.320312 1399.777344 131.320312 C 1401.347656 129.269531 1402.789062 128.53125 1405.15625 128.53125 C 1408.414062 128.53125 1410.429688 130.289062 1410.429688 133.117188 Z M 1429.792969 145.738281 C 1428.925781 145.960938 1428.515625 146.019531 1427.964844 146.019531 C 1426.652344 146.019531 1425.503906 145.09375 1425.222656 143.8125 C 1423.746094 145.375 1421.660156 146.277344 1419.515625 146.277344 C 1416.128906 146.277344 1414.019531 144.480469 1414.019531 141.445312 C 1414.019531 139.390625 1415.003906 137.878906 1416.960938 137.082031 C 1417.980469 136.671875 1418.566406 136.542969 1422.339844 136.058594 C 1424.449219 135.800781 1425.117188 135.320312 1425.117188 134.195312 C 1425.117188 134.195312 1425.117188 133.492188 1425.117188 133.492188 C 1425.117188 131.894531 1423.78125 130.992188 1421.378906 130.992188 C 1418.882812 130.992188 1417.664062 131.917969 1417.441406 133.972656 C 1417.441406 133.972656 1414.757812 133.972656 1414.757812 133.972656 C 1414.910156 130.101562 1417.40625 128.53125 1421.472656 128.53125 C 1425.597656 128.53125 1427.777344 130.136719 1427.777344 133.117188 C 1427.777344 133.117188 1427.777344 142.464844 1427.777344 142.464844 C 1427.777344 143.296875 1428.292969 143.777344 1429.21875 143.777344 C 1429.382812 143.777344 1429.511719 143.777344 1429.792969 143.707031 Z M 1425.117188 140 C 1425.117188 140 1425.117188 137.503906 1425.117188 137.503906 C 1424.226562 137.914062 1423.652344 138.042969 1420.828125 138.429688 C 1417.980469 138.839844 1416.796875 139.613281 1416.796875 141.375 C 1416.796875 143.203125 1418.015625 143.941406 1420.101562 143.941406 C 1422.691406 143.941406 1425.117188 142.40625 1425.117188 140 Z M 1446.050781 145.796875 C 1446.050781 145.796875 1443.390625 145.796875 1443.390625 145.796875 C 1443.390625 145.796875 1443.390625 134.171875 1443.390625 134.171875 C 1443.390625 132.15625 1442.054688 130.863281 1439.933594 130.863281 C 1437.214844 130.863281 1435.363281 133.117188 1435.363281 136.542969 C 1435.363281 136.542969 1435.363281 145.796875 1435.363281 145.796875 C 1435.363281 145.796875 1432.703125 145.796875 1432.703125 145.796875 C 1432.703125 145.796875 1432.703125 129.011719 1432.703125 129.011719 C 1432.703125 129.011719 1435.164062 129.011719 1435.164062 129.011719 C 1435.164062 129.011719 1435.164062 131.824219 1435.164062 131.824219 C 1436.640625 129.492188 1438.246094 128.53125 1440.742188 128.53125 C 1443.964844 128.53125 1446.050781 130.324219 1446.050781 133.117188 Z M 1446.050781 145.796875 "/>
<path fill-rule="nonzero" fill="rgb(0%, 0%, 0%)" fill-opacity="1" d="M 1463.902344 143.039062 C 1463.902344 150.441406 1461.664062 152.773438 1456.414062 152.773438 C 1452.476562 152.773438 1450.015625 150.886719 1449.734375 147.71875 C 1449.734375 147.71875 1452.453125 147.71875 1452.453125 147.71875 C 1452.769531 149.773438 1454.398438 150.535156 1456.519531 150.535156 C 1459.625 150.535156 1461.441406 148.832031 1461.441406 144.386719 C 1461.441406 144.386719 1461.441406 143.261719 1461.441406 143.261719 C 1459.683594 145.375 1458.207031 146.277344 1456.097656 146.277344 C 1452.160156 146.277344 1449.183594 142.851562 1449.183594 137.5625 C 1449.183594 132.121094 1452.066406 128.53125 1456.320312 128.53125 C 1458.464844 128.53125 1460.09375 129.457031 1461.441406 131.449219 C 1461.441406 131.449219 1461.441406 129.011719 1461.441406 129.011719 C 1461.441406 129.011719 1463.902344 129.011719 1463.902344 129.011719 Z M 1461.183594 137.503906 C 1461.183594 133.433594 1459.496094 130.992188 1456.613281 130.992188 C 1453.765625 130.992188 1451.972656 133.363281 1451.972656 137.398438 C 1451.972656 141.46875 1453.730469 143.8125 1456.648438 143.8125 C 1459.460938 143.8125 1461.183594 141.503906 1461.183594 137.503906 Z M 1461.183594 137.503906 "/>
<path fill-rule="nonzero" fill="rgb(0%, 0%, 0%)" fill-opacity="1" d="M 1482.464844 138.171875 C 1482.464844 138.171875 1470.113281 138.171875 1470.113281 138.171875 C 1470.171875 142.019531 1472.257812 143.8125 1475.035156 143.8125 C 1477.179688 143.8125 1478.691406 142.910156 1479.429688 140.707031 C 1479.429688 140.707031 1482.113281 140.707031 1482.113281 140.707031 C 1481.445312 144.09375 1478.785156 146.277344 1474.941406 146.277344 C 1470.242188 146.277344 1467.324219 143.003906 1467.324219 137.503906 C 1467.324219 131.992188 1470.335938 128.53125 1475.011719 128.53125 C 1478.140625 128.53125 1480.707031 130.195312 1481.796875 132.953125 C 1482.277344 134.195312 1482.464844 135.730469 1482.464844 138.171875 Z M 1479.617188 135.800781 C 1479.617188 133.175781 1477.601562 130.992188 1474.976562 130.992188 C 1472.292969 130.992188 1470.394531 133.011719 1470.171875 135.988281 C 1470.171875 135.988281 1479.582031 135.988281 1479.582031 135.988281 C 1479.617188 135.929688 1479.617188 135.800781 1479.617188 135.800781 Z M 1479.617188 135.800781 "/>
<path fill-rule="nonzero" fill="rgb(0%, 0%, 0%)" fill-opacity="1" d="M 1279.332031 191.835938 C 1279.332031 191.835938 1262.597656 191.835938 1262.597656 191.835938 C 1262.597656 191.835938 1262.597656 168.484375 1262.597656 168.484375 C 1262.597656 168.484375 1278.757812 168.484375 1278.757812 168.484375 C 1278.757812 168.484375 1278.757812 171.109375 1278.757812 171.109375 C 1278.757812 171.109375 1265.574219 171.109375 1265.574219 171.109375 C 1265.574219 171.109375 1265.574219 178.570312 1265.574219 178.570312 C 1265.574219 178.570312 1278.277344 178.570312 1278.277344 178.570312 C 1278.277344 178.570312 1278.277344 181.199219 1278.277344 181.199219 C 1278.277344 181.199219 1265.574219 181.199219 1265.574219 181.199219 C 1265.574219 181.199219 1265.574219 189.207031 1265.574219 189.207031 C 1265.574219 189.207031 1279.332031 189.207031 1279.332031 189.207031 Z M 1296.640625 191.835938 C 1296.640625 191.835938 1293.980469 191.835938 1293.980469 191.835938 C 1293.980469 191.835938 1293.980469 180.210938 1293.980469 180.210938 C 1293.980469 178.195312 1292.644531 176.90625 1290.523438 176.90625 C 1287.804688 176.90625 1285.953125 179.15625 1285.953125 182.582031 C 1285.953125 182.582031 1285.953125 191.835938 1285.953125 191.835938 C 1285.953125 191.835938 1283.292969 191.835938 1283.292969 191.835938 C 1283.292969 191.835938 1283.292969 175.050781 1283.292969 175.050781 C 1283.292969 175.050781 1285.753906 175.050781 1285.753906 175.050781 C 1285.753906 175.050781 1285.753906 177.867188 1285.753906 177.867188 C 1287.230469 175.53125 1288.835938 174.570312 1291.332031 174.570312 C 1294.554688 174.570312 1296.640625 176.367188 1296.640625 179.15625 Z M 1296.640625 191.835938 "/>
<path fill-rule="nonzero" fill="rgb(0%, 0%, 0%)" fill-opacity="1" d="M 1306.980469 191.835938 C 1306.078125 192 1305.445312 192.058594 1304.800781 192.058594 C 1302.714844 192.058594 1301.566406 191.097656 1301.566406 189.398438 C 1301.566406 189.398438 1301.566406 177.234375 1301.566406 177.234375 C 1301.566406 177.234375 1299.292969 177.234375 1299.292969 177.234375 C 1299.292969 177.234375 1299.292969 175.050781 1299.292969 175.050781 C 1299.292969 175.050781 1301.566406 175.050781 1301.566406 175.050781 C 1301.566406 175.050781 1301.566406 170.441406 1301.566406 170.441406 C 1301.566406 170.441406 1304.226562 170.441406 1304.226562 170.441406 C 1304.226562 170.441406 1304.226562 175.050781 1304.226562 175.050781 C 1304.226562 175.050781 1306.980469 175.050781 1306.980469 175.050781 C 1306.980469 175.050781 1306.980469 177.234375 1306.980469 177.234375 C 1306.980469 177.234375 1304.226562 177.234375 1304.226562 177.234375 C 1304.226562 177.234375 1304.226562 188.210938 1304.226562 188.210938 C 1304.226562 189.398438 1304.542969 189.726562 1305.691406 189.726562 C 1306.207031 189.726562 1306.628906 189.691406 1306.980469 189.597656 Z M 1306.980469 191.835938 "/>
<path fill-rule="nonzero" fill="rgb(0%, 0%, 0%)" fill-opacity="1" d="M 1318.023438 177.386719 C 1313.886719 177.457031 1312.644531 179.34375 1312.644531 183.121094 C 1312.644531 183.121094 1312.644531 191.835938 1312.644531 191.835938 C 1312.644531 191.835938 1309.984375 191.835938 1309.984375 191.835938 C 1309.984375 191.835938 1309.984375 175.050781 1309.984375 175.050781 C 1309.984375 175.050781 1312.421875 175.050781 1312.421875 175.050781 C 1312.421875 175.050781 1312.421875 178.089844 1312.421875 178.089844 C 1313.957031 175.589844 1315.269531 174.570312 1316.992188 174.570312 C 1317.34375 174.570312 1317.566406 174.605469 1318.023438 174.664062 Z M 1334.726562 183.566406 C 1334.726562 189.078125 1331.84375 192.316406 1327.144531 192.316406 C 1322.375 192.316406 1319.550781 189.078125 1319.550781 183.4375 C 1319.550781 177.808594 1322.398438 174.570312 1327.109375 174.570312 C 1331.9375 174.570312 1334.726562 177.773438 1334.726562 183.566406 Z M 1331.9375 183.542969 C 1331.9375 179.378906 1330.144531 177.035156 1327.144531 177.035156 C 1324.167969 177.035156 1322.339844 179.402344 1322.339844 183.4375 C 1322.339844 187.507812 1324.167969 189.855469 1327.144531 189.855469 C 1330.085938 189.855469 1331.9375 187.484375 1331.9375 183.542969 Z M 1331.9375 183.542969 "/>
<path fill-rule="nonzero" fill="rgb(0%, 0%, 0%)" fill-opacity="1" d="M 1352.925781 183.601562 C 1352.925781 188.949219 1350.078125 192.316406 1345.765625 192.316406 C 1343.585938 192.316406 1342.015625 191.542969 1340.609375 189.820312 C 1340.609375 189.820312 1340.609375 198.816406 1340.609375 198.816406 C 1340.609375 198.816406 1337.949219 198.816406 1337.949219 198.816406 C 1337.949219 198.816406 1337.949219 175.050781 1337.949219 175.050781 C 1337.949219 175.050781 1340.386719 175.050781 1340.386719 175.050781 C 1340.386719 175.050781 1340.386719 177.585938 1340.386719 177.585938 C 1341.628906 175.589844 1343.457031 174.570312 1345.730469 174.570312 C 1350.171875 174.570312 1352.925781 177.960938 1352.925781 183.601562 Z M 1350.148438 183.542969 C 1350.148438 179.53125 1348.226562 177.070312 1345.285156 177.070312 C 1342.460938 177.070312 1340.609375 179.625 1340.609375 183.566406 C 1340.609375 187.507812 1342.460938 189.820312 1345.285156 189.820312 C 1348.191406 189.820312 1350.148438 187.355469 1350.148438 183.542969 Z M 1350.148438 183.542969 "/>
<path fill-rule="nonzero" fill="rgb(0%, 0%, 0%)" fill-opacity="1" d="M 1369.277344 175.050781 C 1369.277344 175.050781 1361.824219 195.355469 1361.824219 195.355469 C 1360.933594 197.757812 1359.398438 198.816406 1357.5 198.816406 C 1356.796875 198.816406 1356.257812 198.6875 1355.707031 198.40625 C 1355.707031 198.40625 1355.707031 196 1355.707031 196 C 1356.292969 196.128906 1356.738281 196.1875 1357.125 196.1875 C 1358.273438 196.1875 1358.8125 195.742188 1359.269531 194.558594 C 1359.269531 194.558594 1360.289062 191.894531 1360.289062 191.894531 C 1360.289062 191.894531 1354.628906 175.050781 1354.628906 175.050781 C 1354.628906 175.050781 1357.476562 175.050781 1357.476562 175.050781 C 1357.476562 175.050781 1361.765625 188.117188 1361.765625 188.117188 C 1361.765625 188.117188 1366.40625 175.050781 1366.40625 175.050781 Z M 1369.277344 175.050781 "/>
<path fill-rule="nonzero" fill="rgb(0%, 0%, 0%)" fill-opacity="1" d="M 1395.617188 183.601562 C 1395.617188 188.949219 1392.769531 192.316406 1388.457031 192.316406 C 1386.277344 192.316406 1384.707031 191.542969 1383.300781 189.820312 C 1383.300781 189.820312 1383.300781 198.816406 1383.300781 198.816406 C 1383.300781 198.816406 1380.640625 198.816406 1380.640625 198.816406 C 1380.640625 198.816406 1380.640625 175.050781 1380.640625 175.050781 C 1380.640625 175.050781 1383.078125 175.050781 1383.078125 175.050781 C 1383.078125 175.050781 1383.078125 177.585938 1383.078125 177.585938 C 1384.320312 175.589844 1386.148438 174.570312 1388.421875 174.570312 C 1392.863281 174.570312 1395.617188 177.960938 1395.617188 183.601562 Z M 1392.839844 183.542969 C 1392.839844 179.53125 1390.917969 177.070312 1387.976562 177.070312 C 1385.152344 177.070312 1383.300781 179.625 1383.300781 183.566406 C 1383.300781 187.507812 1385.152344 189.820312 1387.976562 189.820312 C 1390.882812 189.820312 1392.839844 187.355469 1392.839844 183.542969 Z M 1392.839844 183.542969 "/>
<path fill-rule="nonzero" fill="rgb(0%, 0%, 0%)" fill-opacity="1" d="M 1406.949219 177.386719 C 1402.8125 177.457031 1401.570312 179.34375 1401.570312 183.121094 C 1401.570312 183.121094 1401.570312 191.835938 1401.570312 191.835938 C 1401.570312 191.835938 1398.910156 191.835938 1398.910156 191.835938 C 1398.910156 191.835938 1398.910156 175.050781 1398.910156 175.050781 C 1398.910156 175.050781 1401.347656 175.050781 1401.347656 175.050781 C 1401.347656 175.050781 1401.347656 178.089844 1401.347656 178.089844 C 1402.882812 175.589844 1404.195312 174.570312 1405.917969 174.570312 C 1406.269531 174.570312 1406.492188 174.605469 1406.949219 174.664062 Z M 1406.949219 177.386719 "/>
<path fill-rule="nonzero" fill="rgb(0%, 0%, 0%)" fill-opacity="1" d="M 1423.652344 183.566406 C 1423.652344 189.078125 1420.769531 192.316406 1416.070312 192.316406 C 1411.300781 192.316406 1408.476562 189.078125 1408.476562 183.4375 C 1408.476562 177.808594 1411.324219 174.570312 1416.035156 174.570312 C 1420.863281 174.570312 1423.652344 177.773438 1423.652344 183.566406 Z M 1420.863281 183.542969 C 1420.863281 179.378906 1419.070312 177.035156 1416.070312 177.035156 C 1413.09375 177.035156 1411.265625 179.402344 1411.265625 183.4375 C 1411.265625 187.507812 1413.09375 189.855469 1416.070312 189.855469 C 1419.011719 189.855469 1420.863281 187.484375 1420.863281 183.542969 Z M 1420.863281 183.542969 "/>
<path fill-rule="nonzero" fill="rgb(0%, 0%, 0%)" fill-opacity="1" d="M 1440.964844 191.835938 C 1440.964844 191.835938 1438.597656 191.835938 1438.597656 191.835938 C 1438.597656 191.835938 1438.597656 189.375 1438.597656 189.375 C 1437.15625 191.449219 1435.550781 192.316406 1433.253906 192.316406 C 1428.742188 192.316406 1425.953125 188.949219 1425.953125 183.285156 C 1425.953125 177.9375 1428.800781 174.570312 1433.148438 174.570312 C 1435.398438 174.570312 1437.191406 175.460938 1438.304688 177.164062 C 1438.304688 177.164062 1438.304688 168.484375 1438.304688 168.484375 C 1438.304688 168.484375 1440.964844 168.484375 1440.964844 168.484375 Z M 1438.304688 183.507812 C 1438.304688 179.625 1436.488281 177.070312 1433.605469 177.070312 C 1430.6875 177.070312 1428.742188 179.53125 1428.742188 183.4375 C 1428.742188 187.355469 1430.6875 189.820312 1433.628906 189.820312 C 1436.453125 189.820312 1438.304688 187.378906 1438.304688 183.507812 Z M 1438.304688 183.507812 "/>
<path fill-rule="nonzero" fill="rgb(0%, 0%, 0%)" fill-opacity="1" d="M 1458.335938 191.835938 C 1458.335938 191.835938 1455.945312 191.835938 1455.945312 191.835938 C 1455.945312 191.835938 1455.945312 189.242188 1455.945312 189.242188 C 1454.375 191.449219 1452.804688 192.316406 1450.34375 192.316406 C 1447.074219 192.316406 1445 190.523438 1445 187.730469 C 1445 187.730469 1445 175.050781 1445 175.050781 C 1445 175.050781 1447.648438 175.050781 1447.648438 175.050781 C 1447.648438 175.050781 1447.648438 186.675781 1447.648438 186.675781 C 1447.648438 188.691406 1448.996094 189.984375 1451.105469 189.984375 C 1453.894531 189.984375 1455.6875 187.730469 1455.6875 184.304688 C 1455.6875 184.304688 1455.6875 175.050781 1455.6875 175.050781 C 1455.6875 175.050781 1458.335938 175.050781 1458.335938 175.050781 Z M 1458.335938 191.835938 "/>
<path fill-rule="nonzero" fill="rgb(0%, 0%, 0%)" fill-opacity="1" d="M 1475.972656 186.066406 C 1475.644531 189.914062 1473.125 192.316406 1469.117188 192.316406 C 1464.570312 192.316406 1461.699219 189.019531 1461.699219 183.601562 C 1461.699219 178.03125 1464.640625 174.570312 1469.152344 174.570312 C 1472.902344 174.570312 1475.457031 176.589844 1475.773438 180.695312 C 1475.773438 180.695312 1473.089844 180.695312 1473.089844 180.695312 C 1472.773438 178.347656 1471.355469 177.035156 1469.117188 177.035156 C 1466.210938 177.035156 1464.476562 179.402344 1464.476562 183.601562 C 1464.476562 187.578125 1466.234375 189.855469 1469.1875 189.855469 C 1471.460938 189.855469 1472.832031 188.761719 1473.277344 186.066406 Z M 1484.835938 191.835938 C 1483.933594 192 1483.300781 192.058594 1482.65625 192.058594 C 1480.570312 192.058594 1479.421875 191.097656 1479.421875 189.398438 C 1479.421875 189.398438 1479.421875 177.234375 1479.421875 177.234375 C 1479.421875 177.234375 1477.148438 177.234375 1477.148438 177.234375 C 1477.148438 177.234375 1477.148438 175.050781 1477.148438 175.050781 C 1477.148438 175.050781 1479.421875 175.050781 1479.421875 175.050781 C 1479.421875 175.050781 1479.421875 170.441406 1479.421875 170.441406 C 1479.421875 170.441406 1482.082031 170.441406 1482.082031 170.441406 C 1482.082031 170.441406 1482.082031 175.050781 1482.082031 175.050781 C 1482.082031 175.050781 1484.835938 175.050781 1484.835938 175.050781 C 1484.835938 175.050781 1484.835938 177.234375 1484.835938 177.234375 C 1484.835938 177.234375 1482.082031 177.234375 1482.082031 177.234375 C 1482.082031 177.234375 1482.082031 188.210938 1482.082031 188.210938 C 1482.082031 189.398438 1482.398438 189.726562 1483.546875 189.726562 C 1484.0625 189.726562 1484.484375 189.691406 1484.835938 189.597656 Z M 1484.835938 191.835938 "/>
<path fill-rule="nonzero" fill="rgb(0%, 0%, 0%)" fill-opacity="1" d="M 1490.5 191.835938 C 1490.5 191.835938 1487.839844 191.835938 1487.839844 191.835938 C 1487.839844 191.835938 1487.839844 175.050781 1487.839844 175.050781 C 1487.839844 175.050781 1490.5 175.050781 1490.5 175.050781 Z M 1490.851562 172.519531 C 1490.851562 172.519531 1487.523438 172.519531 1487.523438 172.519531 C 1487.523438 172.519531 1487.523438 169.1875 1487.523438 169.1875 C 1487.523438 169.1875 1490.851562 169.1875 1490.851562 169.1875 Z M 1509.03125 183.566406 C 1509.03125 189.078125 1506.148438 192.316406 1501.449219 192.316406 C 1496.679688 192.316406 1493.855469 189.078125 1493.855469 183.4375 C 1493.855469 177.808594 1496.703125 174.570312 1501.414062 174.570312 C 1506.242188 174.570312 1509.03125 177.773438 1509.03125 183.566406 Z M 1506.242188 183.542969 C 1506.242188 179.378906 1504.449219 177.035156 1501.449219 177.035156 C 1498.472656 177.035156 1496.644531 179.402344 1496.644531 183.4375 C 1496.644531 187.507812 1498.472656 189.855469 1501.449219 189.855469 C 1504.390625 189.855469 1506.242188 187.484375 1506.242188 183.542969 Z M 1506.242188 183.542969 "/>
<path fill-rule="nonzero" fill="rgb(0%, 0%, 0%)" fill-opacity="1" d="M 1526.082031 191.835938 C 1526.082031 191.835938 1523.421875 191.835938 1523.421875 191.835938 C 1523.421875 191.835938 1523.421875 180.210938 1523.421875 180.210938 C 1523.421875 178.195312 1522.085938 176.90625 1519.964844 176.90625 C 1517.246094 176.90625 1515.394531 179.15625 1515.394531 182.582031 C 1515.394531 182.582031 1515.394531 191.835938 1515.394531 191.835938 C 1515.394531 191.835938 1512.734375 191.835938 1512.734375 191.835938 C 1512.734375 191.835938 1512.734375 175.050781 1512.734375 175.050781 C 1512.734375 175.050781 1515.195312 175.050781 1515.195312 175.050781 C 1515.195312 175.050781 1515.195312 177.867188 1515.195312 177.867188 C 1516.671875 175.53125 1518.277344 174.570312 1520.773438 174.570312 C 1523.996094 174.570312 1526.082031 176.367188 1526.082031 179.15625 Z M 1526.082031 191.835938 "/>
<path fill-rule="nonzero" fill="rgb(0%, 0%, 0%)" fill-opacity="1" d="M 1279.332031 237.878906 C 1279.332031 237.878906 1262.597656 237.878906 1262.597656 237.878906 C 1262.597656 237.878906 1262.597656 214.527344 1262.597656 214.527344 C 1262.597656 214.527344 1278.757812 214.527344 1278.757812 214.527344 C 1278.757812 214.527344 1278.757812 217.152344 1278.757812 217.152344 C 1278.757812 217.152344 1265.574219 217.152344 1265.574219 217.152344 C 1265.574219 217.152344 1265.574219 224.613281 1265.574219 224.613281 C 1265.574219 224.613281 1278.277344 224.613281 1278.277344 224.613281 C 1278.277344 224.613281 1278.277344 227.242188 1278.277344 227.242188 C 1278.277344 227.242188 1265.574219 227.242188 1265.574219 227.242188 C 1265.574219 227.242188 1265.574219 235.253906 1265.574219 235.253906 C 1265.574219 235.253906 1279.332031 235.253906 1279.332031 235.253906 Z M 1296.640625 237.878906 C 1296.640625 237.878906 1293.980469 237.878906 1293.980469 237.878906 C 1293.980469 237.878906 1293.980469 226.257812 1293.980469 226.257812 C 1293.980469 224.238281 1292.644531 222.949219 1290.523438 222.949219 C 1287.804688 222.949219 1285.953125 225.199219 1285.953125 228.625 C 1285.953125 228.625 1285.953125 237.878906 1285.953125 237.878906 C 1285.953125 237.878906 1283.292969 237.878906 1283.292969 237.878906 C 1283.292969 237.878906 1283.292969 221.09375 1283.292969 221.09375 C 1283.292969 221.09375 1285.753906 221.09375 1285.753906 221.09375 C 1285.753906 221.09375 1285.753906 223.910156 1285.753906 223.910156 C 1287.230469 221.574219 1288.835938 220.613281 1291.332031 220.613281 C 1294.554688 220.613281 1296.640625 222.410156 1296.640625 225.199219 Z M 1296.640625 237.878906 "/>
<path fill-rule="nonzero" fill="rgb(0%, 0%, 0%)" fill-opacity="1" d="M 1306.980469 237.878906 C 1306.078125 238.042969 1305.445312 238.101562 1304.800781 238.101562 C 1302.714844 238.101562 1301.566406 237.140625 1301.566406 235.441406 C 1301.566406 235.441406 1301.566406 223.277344 1301.566406 223.277344 C 1301.566406 223.277344 1299.292969 223.277344 1299.292969 223.277344 C 1299.292969 223.277344 1299.292969 221.09375 1299.292969 221.09375 C 1299.292969 221.09375 1301.566406 221.09375 1301.566406 221.09375 C 1301.566406 221.09375 1301.566406 216.484375 1301.566406 216.484375 C 1301.566406 216.484375 1304.226562 216.484375 1304.226562 216.484375 C 1304.226562 216.484375 1304.226562 221.09375 1304.226562 221.09375 C 1304.226562 221.09375 1306.980469 221.09375 1306.980469 221.09375 C 1306.980469 221.09375 1306.980469 223.277344 1306.980469 223.277344 C 1306.980469 223.277344 1304.226562 223.277344 1304.226562 223.277344 C 1304.226562 223.277344 1304.226562 234.253906 1304.226562 234.253906 C 1304.226562 235.441406 1304.542969 235.769531 1305.691406 235.769531 C 1306.207031 235.769531 1306.628906 235.734375 1306.980469 235.640625 Z M 1306.980469 237.878906 "/>
<path fill-rule="nonzero" fill="rgb(0%, 0%, 0%)" fill-opacity="1" d="M 1318.023438 223.429688 C 1313.886719 223.5 1312.644531 225.386719 1312.644531 229.164062 C 1312.644531 229.164062 1312.644531 237.878906 1312.644531 237.878906 C 1312.644531 237.878906 1309.984375 237.878906 1309.984375 237.878906 C 1309.984375 237.878906 1309.984375 221.09375 1309.984375 221.09375 C 1309.984375 221.09375 1312.421875 221.09375 1312.421875 221.09375 C 1312.421875 221.09375 1312.421875 224.132812 1312.421875 224.132812 C 1313.957031 221.632812 1315.269531 220.613281 1316.992188 220.613281 C 1317.34375 220.613281 1317.566406 220.648438 1318.023438 220.707031 Z M 1334.726562 229.609375 C 1334.726562 235.125 1331.84375 238.359375 1327.144531 238.359375 C 1322.375 238.359375 1319.550781 235.125 1319.550781 229.480469 C 1319.550781 223.851562 1322.398438 220.613281 1327.109375 220.613281 C 1331.9375 220.613281 1334.726562 223.816406 1334.726562 229.609375 Z M 1331.9375 229.585938 C 1331.9375 225.421875 1330.144531 223.078125 1327.144531 223.078125 C 1324.167969 223.078125 1322.339844 225.445312 1322.339844 229.480469 C 1322.339844 233.550781 1324.167969 235.898438 1327.144531 235.898438 C 1330.085938 235.898438 1331.9375 233.527344 1331.9375 229.585938 Z M 1331.9375 229.585938 "/>
<path fill-rule="nonzero" fill="rgb(0%, 0%, 0%)" fill-opacity="1" d="M 1352.925781 229.644531 C 1352.925781 234.996094 1350.078125 238.359375 1345.765625 238.359375 C 1343.585938 238.359375 1342.015625 237.585938 1340.609375 235.863281 C 1340.609375 235.863281 1340.609375 244.859375 1340.609375 244.859375 C 1340.609375 244.859375 1337.949219 244.859375 1337.949219 244.859375 C 1337.949219 244.859375 1337.949219 221.09375 1337.949219 221.09375 C 1337.949219 221.09375 1340.386719 221.09375 1340.386719 221.09375 C 1340.386719 221.09375 1340.386719 223.628906 1340.386719 223.628906 C 1341.628906 221.632812 1343.457031 220.613281 1345.730469 220.613281 C 1350.171875 220.613281 1352.925781 224.003906 1352.925781 229.644531 Z M 1350.148438 229.585938 C 1350.148438 225.574219 1348.226562 223.113281 1345.285156 223.113281 C 1342.460938 223.113281 1340.609375 225.667969 1340.609375 229.609375 C 1340.609375 233.550781 1342.460938 235.863281 1345.285156 235.863281 C 1348.191406 235.863281 1350.148438 233.398438 1350.148438 229.585938 Z M 1350.148438 229.585938 "/>
<path fill-rule="nonzero" fill="rgb(0%, 0%, 0%)" fill-opacity="1" d="M 1369.277344 221.09375 C 1369.277344 221.09375 1361.824219 241.398438 1361.824219 241.398438 C 1360.933594 243.804688 1359.398438 244.859375 1357.5 244.859375 C 1356.796875 244.859375 1356.257812 244.730469 1355.707031 244.449219 C 1355.707031 244.449219 1355.707031 242.042969 1355.707031 242.042969 C 1356.292969 242.171875 1356.738281 242.230469 1357.125 242.230469 C 1358.273438 242.230469 1358.8125 241.785156 1359.269531 240.601562 C 1359.269531 240.601562 1360.289062 237.9375 1360.289062 237.9375 C 1360.289062 237.9375 1354.628906 221.09375 1354.628906 221.09375 C 1354.628906 221.09375 1357.476562 221.09375 1357.476562 221.09375 C 1357.476562 221.09375 1361.765625 234.160156 1361.765625 234.160156 C 1361.765625 234.160156 1366.40625 221.09375 1366.40625 221.09375 Z M 1369.277344 221.09375 "/>
<path fill-rule="nonzero" fill="rgb(0%, 0%, 0%)" fill-opacity="1" d="M 1387.144531 223.277344 C 1387.144531 223.277344 1384.355469 223.277344 1384.355469 223.277344 C 1384.355469 223.277344 1384.355469 237.878906 1384.355469 237.878906 C 1384.355469 237.878906 1381.695312 237.878906 1381.695312 237.878906 C 1381.695312 237.878906 1381.695312 223.277344 1381.695312 223.277344 C 1381.695312 223.277344 1379.457031 223.277344 1379.457031 223.277344 C 1379.457031 223.277344 1379.457031 221.09375 1379.457031 221.09375 C 1379.457031 221.09375 1381.695312 221.09375 1381.695312 221.09375 C 1381.695312 221.09375 1381.695312 218.246094 1381.695312 218.246094 C 1381.695312 215.839844 1383.171875 214.433594 1385.632812 214.433594 C 1386.183594 214.433594 1386.535156 214.46875 1387.144531 214.597656 C 1387.144531 214.597656 1387.144531 216.800781 1387.144531 216.800781 C 1386.535156 216.765625 1386.441406 216.765625 1386.207031 216.765625 C 1385 216.765625 1384.355469 217.339844 1384.355469 218.46875 C 1384.355469 218.46875 1384.355469 221.09375 1384.355469 221.09375 C 1384.355469 221.09375 1387.144531 221.09375 1387.144531 221.09375 Z M 1387.144531 223.277344 "/>
<path fill-rule="nonzero" fill="rgb(0%, 0%, 0%)" fill-opacity="1" d="M 1392.605469 237.878906 C 1392.605469 237.878906 1389.957031 237.878906 1389.957031 237.878906 C 1389.957031 237.878906 1389.957031 214.527344 1389.957031 214.527344 C 1389.957031 214.527344 1392.605469 214.527344 1392.605469 214.527344 Z M 1411.203125 229.609375 C 1411.203125 235.125 1408.320312 238.359375 1403.621094 238.359375 C 1398.851562 238.359375 1396.027344 235.125 1396.027344 229.480469 C 1396.027344 223.851562 1398.875 220.613281 1403.585938 220.613281 C 1408.414062 220.613281 1411.203125 223.816406 1411.203125 229.609375 Z M 1408.414062 229.585938 C 1408.414062 225.421875 1406.621094 223.078125 1403.621094 223.078125 C 1400.644531 223.078125 1398.816406 225.445312 1398.816406 229.480469 C 1398.816406 233.550781 1400.644531 235.898438 1403.621094 235.898438 C 1406.5625 235.898438 1408.414062 233.527344 1408.414062 229.585938 Z M 1435.335938 221.09375 C 1435.335938 221.09375 1430.402344 237.878906 1430.402344 237.878906 C 1430.402344 237.878906 1427.367188 237.878906 1427.367188 237.878906 C 1427.367188 237.878906 1423.96875 224.71875 1423.96875 224.71875 C 1423.96875 224.71875 1420.734375 237.878906 1420.734375 237.878906 C 1420.734375 237.878906 1417.722656 237.878906 1417.722656 237.878906 C 1417.722656 237.878906 1412.859375 221.09375 1412.859375 221.09375 C 1412.859375 221.09375 1415.8125 221.09375 1415.8125 221.09375 C 1415.8125 221.09375 1419.234375 234.160156 1419.234375 234.160156 C 1419.234375 234.160156 1422.433594 221.09375 1422.433594 221.09375 C 1422.433594 221.09375 1425.703125 221.09375 1425.703125 221.09375 C 1425.703125 221.09375 1428.996094 234.160156 1428.996094 234.160156 C 1428.996094 234.160156 1432.324219 221.09375 1432.324219 221.09375 Z M 1435.335938 221.09375 "/>
<path fill="none" stroke-width="1.664951" stroke-linecap="butt" stroke-linejoin="miter" stroke="rgb(0%, 0%, 0%)" stroke-opacity="1" stroke-miterlimit="2" d="M 97.08767 780.882812 L 1570.418088 780.882812 " transform="matrix(0.999097, 0, 0, 1, 0, 0)"/>
<path fill="none" stroke-width="1.664951" stroke-linecap="butt" stroke-linejoin="miter" stroke="rgb(0%, 0%, 0%)" stroke-opacity="1" stroke-miterlimit="2" d="M 98.088574 781.574219 L 98.088574 31.027344 " transform="matrix(0.999097, 0, 0, 1, 0, 0)"/>
<path fill="none" stroke-width="1.664951" stroke-linecap="butt" stroke-linejoin="miter" stroke="rgb(0%, 0%, 0%)" stroke-opacity="1" stroke-miterlimit="2" d="M 97.08767 31.71875 L 1570.418088 31.71875 " transform="matrix(0.999097, 0, 0, 1, 0, 0)"/>
<path fill="none" stroke-width="1.664951" stroke-linecap="butt" stroke-linejoin="miter" stroke="rgb(0%, 0%, 0%)" stroke-opacity="1" stroke-miterlimit="2" d="M 1569.417184 781.574219 L 1569.417184 31.027344 " transform="matrix(0.999097, 0, 0, 1, 0, 0)"/>
<path fill-rule="nonzero" fill="rgb(0%, 0%, 0%)" fill-opacity="1" d="M 79.238281 355.195312 C 79.238281 366.0625 75.414062 371.804688 68.414062 371.804688 C 61.328125 371.804688 57.589844 366.0625 57.589844 354.90625 C 57.589844 343.796875 61.277344 338.023438 68.414062 338.023438 C 75.601562 338.023438 79.238281 343.710938 79.238281 355.195312 Z M 75.035156 354.820312 C 75.035156 345.949219 72.835938 341.664062 68.414062 341.664062 C 63.992188 341.664062 61.789062 345.898438 61.789062 354.957031 C 61.789062 364.011719 63.992188 368.402344 68.328125 368.402344 C 72.886719 368.402344 75.035156 364.199219 75.035156 354.820312 Z M 75.035156 354.820312 "/>
</svg>
