<?xml version="1.0" encoding="UTF-8"?>
<svg xmlns="http://www.w3.org/2000/svg" xmlns:xlink="http://www.w3.org/1999/xlink" width="1600" height="821" viewBox="0 0 1600 821">
<rect x="-160" y="-82.1" width="1920" height="985.2" fill="rgb(100%, 100%, 100%)" fill-opacity="1"/>
<path fill-rule="nonzero" fill="rgb(100%, 100%, 100%)" fill-opacity="1" d="M 88 18.890625 L 1568 18.890625 L 1568 739.269531 L 88 739.269531 Z M 88 18.890625 "/>
<path fill="none" stroke-width="1.63274" stroke-linecap="butt" stroke-linejoin="miter" stroke="rgb(0%, 0%, 0%)" stroke-opacity="0.12" stroke-miterlimit="2" d="M 155.430267 739.269531 L 155.430267 18.890625 " transform="matrix(0.998991, 0, 0, 1, 0, 0)"/>
<path fill="none" stroke-width="1.63274" stroke-linecap="butt" stroke-linejoin="miter" stroke="rgb(0%, 0%, 0%)" stroke-opacity="0.12" stroke-miterlimit="2" d="M 828.836296 739.269531 L 828.836296 18.890625 " transform="matrix(0.998991, 0, 0, 1, 0, 0)"/>
<path fill="none" stroke-width="1.63274" stroke-linecap="butt" stroke-linejoin="miter" stroke="rgb(0%, 0%, 0%)" stroke-opacity="0.12" stroke-miterlimit="2" d="M 1502.242325 739.269531 L 1502.242325 18.890625 " transform="matrix(0.998991, 0, 0, 1, 0, 0)"/>
<path fill="none" stroke-width="1.63274" stroke-linecap="butt" stroke-linejoin="miter" stroke="rgb(0%, 0%, 0%)" stroke-opacity="0.12" stroke-miterlimit="2" d="M 88.088882 706.523438 L 1569.58371 706.523438 " transform="matrix(0.998991, 0, 0, 1, 0, 0)"/>
<path fill="none" stroke-width="1.63274" stroke-linecap="butt" stroke-linejoin="miter" stroke="rgb(0%, 0%, 0%)" stroke-opacity="0.12" stroke-miterlimit="2" d="M 88.088882 488.230469 L 1569.58371 488.230469 " transform="matrix(0.998991, 0, 0, 1, 0, 0)"/>
<path fill="none" stroke-width="1.63274" stroke-linecap="butt" stroke-linejoin="miter" stroke="rgb(0%, 0%, 0%)" stroke-opacity="0.12" stroke-miterlimit="2" d="M 88.088882 269.933594 L 1569.58371 269.933594 " transform="matrix(0.998991, 0, 0, 1, 0, 0)"/>
<path fill="none" stroke-width="1.63274" stroke-linecap="butt" stroke-linejoin="miter" stroke="rgb(0%, 0%, 0%)" stroke-opacity="0.12" stroke-miterlimit="2" d="M 88.088882 51.636719 L 1569.58371 51.636719 " transform="matrix(0.998991, 0, 0, 1, 0, 0)"/>
<path fill-rule="nonzero" fill="rgb(0%, 0%, 0%)" fill-opacity="1" d="M 164.894531 777.730469 C 164.894531 788.597656 161.070312 794.339844 154.070312 794.339844 C 146.984375 794.339844 143.246094 788.597656 143.246094 777.4375 C 143.246094 766.332031 146.933594 760.554688 154.070312 760.554688 C 161.257812 760.554688 164.894531 766.246094 164.894531 777.730469 Z M 160.695312 777.351562 C 160.695312 768.484375 158.492188 764.195312 154.070312 764.195312 C 149.648438 764.195312 147.445312 768.433594 147.445312 777.488281 C 147.445312 786.546875 149.648438 790.9375 153.984375 790.9375 C 158.542969 790.9375 160.695312 786.734375 160.695312 777.351562 Z M 160.695312 777.351562 "/>
<path fill-rule="nonzero" fill="rgb(0%, 0%, 0%)" fill-opacity="1" d="M 826.109375 782.667969 C 826.109375 789.675781 821.449219 794.339844 814.777344 794.339844 C 808.902344 794.339844 805.183594 791.726562 803.832031 785.144531 C 803.832031 785.144531 807.929688 785.144531 807.929688 785.144531 C 808.902344 788.871094 811.105469 790.699219 814.691406 790.699219 C 819.164062 790.699219 821.910156 788 821.910156 783.230469 C 821.910156 778.328125 819.113281 775.492188 814.691406 775.492188 C 812.128906 775.492188 810.542969 776.277344 808.628906 778.566406 C 808.628906 778.566406 804.855469 778.566406 804.855469 778.566406 C 804.855469 778.566406 807.316406 761.257812 807.316406 761.257812 C 807.316406 761.257812 824.386719 761.257812 824.386719 761.257812 C 824.386719 761.257812 824.386719 765.304688 824.386719 765.304688 C 824.386719 765.304688 810.628906 765.304688 810.628906 765.304688 C 810.628906 765.304688 809.328125 773.851562 809.328125 773.851562 C 811.242188 772.449219 813.101562 771.851562 815.441406 771.851562 C 821.773438 771.851562 826.109375 776.140625 826.109375 782.667969 Z M 826.109375 782.667969 "/>
<path fill-rule="nonzero" fill="rgb(0%, 0%, 0%)" fill-opacity="1" d="M 851.757812 777.730469 C 851.757812 788.597656 847.933594 794.339844 840.933594 794.339844 C 833.847656 794.339844 830.109375 788.597656 830.109375 777.4375 C 830.109375 766.332031 833.796875 760.554688 840.933594 760.554688 C 848.121094 760.554688 851.757812 766.246094 851.757812 777.730469 Z M 847.558594 777.351562 C 847.558594 768.484375 845.355469 764.195312 840.933594 764.195312 C 836.511719 764.195312 834.308594 768.433594 834.308594 777.488281 C 834.308594 786.546875 836.511719 790.9375 840.847656 790.9375 C 845.40625 790.9375 847.558594 786.734375 847.558594 777.351562 Z M 847.558594 777.351562 "/>
<path fill-rule="nonzero" fill="rgb(0%, 0%, 0%)" fill-opacity="1" d="M 1478.230469 793.640625 C 1478.230469 793.640625 1474.117188 793.640625 1474.117188 793.640625 C 1474.117188 793.640625 1474.117188 770.074219 1474.117188 770.074219 C 1474.117188 770.074219 1466.808594 770.074219 1466.808594 770.074219 C 1466.808594 770.074219 1466.808594 767.132812 1466.808594 767.132812 C 1473.144531 766.332031 1474.082031 765.628906 1475.515625 760.554688 C 1475.515625 760.554688 1478.230469 760.554688 1478.230469 760.554688 Z M 1478.230469 793.640625 "/>
<path fill-rule="nonzero" fill="rgb(0%, 0%, 0%)" fill-opacity="1" d="M 1511.609375 777.730469 C 1511.609375 788.597656 1507.785156 794.339844 1500.785156 794.339844 C 1493.703125 794.339844 1489.960938 788.597656 1489.960938 777.4375 C 1489.960938 766.332031 1493.648438 760.554688 1500.785156 760.554688 C 1507.972656 760.554688 1511.609375 766.246094 1511.609375 777.730469 Z M 1507.410156 777.351562 C 1507.410156 768.484375 1505.207031 764.195312 1500.785156 764.195312 C 1496.363281 764.195312 1494.164062 768.433594 1494.164062 777.488281 C 1494.164062 786.546875 1496.363281 790.9375 1500.699219 790.9375 C 1505.257812 790.9375 1507.410156 786.734375 1507.410156 777.351562 Z M 1507.410156 777.351562 "/>
<path fill-rule="nonzero" fill="rgb(0%, 0%, 0%)" fill-opacity="1" d="M 1537.527344 777.730469 C 1537.527344 788.597656 1533.703125 794.339844 1526.703125 794.339844 C 1519.621094 794.339844 1515.882812 788.597656 1515.882812 777.4375 C 1515.882812 766.332031 1519.570312 760.554688 1526.703125 760.554688 C 1533.890625 760.554688 1537.527344 766.246094 1537.527344 777.730469 Z M 1533.328125 777.351562 C 1533.328125 768.484375 1531.125 764.195312 1526.703125 764.195312 C 1522.28125 764.195312 1520.082031 768.433594 1520.082031 777.488281 C 1520.082031 786.546875 1522.28125 790.9375 1526.617188 790.9375 C 1531.175781 790.9375 1533.328125 786.734375 1533.328125 777.351562 Z M 1533.328125 777.351562 "/>
<path fill-rule="nonzero" fill="rgb(0%, 0%, 0%)" fill-opacity="1" d="M 68.226562 706.835938 C 68.226562 717.703125 64.402344 723.445312 57.402344 723.445312 C 50.316406 723.445312 46.578125 717.703125 46.578125 706.546875 C 46.578125 695.4375 50.265625 689.660156 57.402344 689.660156 C 64.589844 689.660156 68.226562 695.351562 68.226562 706.835938 Z M 64.027344 706.460938 C 64.027344 697.589844 61.824219 693.300781 57.402344 693.300781 C 52.980469 693.300781 50.777344 697.539062 50.777344 706.597656 C 50.777344 715.652344 52.980469 720.046875 57.316406 720.046875 C 61.875 720.046875 64.027344 715.839844 64.027344 706.460938 Z M 64.027344 706.460938 "/>
<path fill-rule="nonzero" fill="rgb(0%, 0%, 0%)" fill-opacity="1" d="M 67.582031 493.417969 C 67.582031 500.574219 62.824219 505.335938 56.007812 505.335938 C 50.011719 505.335938 46.210938 502.667969 44.832031 495.949219 C 44.832031 495.949219 49.015625 495.949219 49.015625 495.949219 C 50.011719 499.753906 52.257812 501.621094 55.921875 501.621094 C 60.488281 501.621094 63.292969 498.863281 63.292969 493.992188 C 63.292969 488.984375 60.433594 486.089844 55.921875 486.089844 C 53.304688 486.089844 51.683594 486.890625 49.730469 489.230469 C 49.730469 489.230469 45.878906 489.230469 45.878906 489.230469 C 45.878906 489.230469 48.390625 471.554688 48.390625 471.554688 C 48.390625 471.554688 65.820312 471.554688 65.820312 471.554688 C 65.820312 471.554688 65.820312 475.6875 65.820312 475.6875 C 65.820312 475.6875 51.769531 475.6875 51.769531 475.6875 C 51.769531 475.6875 50.445312 484.414062 50.445312 484.414062 C 52.398438 482.984375 54.300781 482.371094 56.6875 482.371094 C 63.15625 482.371094 67.582031 486.753906 67.582031 493.417969 Z M 67.582031 493.417969 "/>
<path fill-rule="nonzero" fill="rgb(0%, 0%, 0%)" fill-opacity="1" d="M 36.105469 285.546875 C 36.105469 285.546875 31.992188 285.546875 31.992188 285.546875 C 31.992188 285.546875 31.992188 261.980469 31.992188 261.980469 C 31.992188 261.980469 24.6875 261.980469 24.6875 261.980469 C 24.6875 261.980469 24.6875 259.042969 24.6875 259.042969 C 31.019531 258.238281 31.957031 257.539062 33.390625 252.460938 C 33.390625 252.460938 36.105469 252.460938 36.105469 252.460938 Z M 36.105469 285.546875 "/>
<path fill-rule="nonzero" fill="rgb(0%, 0%, 0%)" fill-opacity="1" d="M 69.484375 269.636719 C 69.484375 280.503906 65.660156 286.246094 58.660156 286.246094 C 51.578125 286.246094 47.839844 280.503906 47.839844 269.347656 C 47.839844 258.238281 51.527344 252.460938 58.660156 252.460938 C 65.847656 252.460938 69.484375 258.152344 69.484375 269.636719 Z M 65.285156 269.261719 C 65.285156 260.390625 63.082031 256.101562 58.660156 256.101562 C 54.242188 256.101562 52.039062 260.339844 52.039062 269.398438 C 52.039062 278.453125 54.242188 282.847656 58.578125 282.847656 C 63.132812 282.847656 65.285156 278.640625 65.285156 269.261719 Z M 65.285156 269.261719 "/>
<path fill-rule="nonzero" fill="rgb(0%, 0%, 0%)" fill-opacity="1" d="M 36.105469 68.449219 C 36.105469 68.449219 31.992188 68.449219 31.992188 68.449219 C 31.992188 68.449219 31.992188 44.882812 31.992188 44.882812 C 31.992188 44.882812 24.6875 44.882812 24.6875 44.882812 C 24.6875 44.882812 24.6875 41.945312 24.6875 41.945312 C 31.019531 41.140625 31.957031 40.441406 33.390625 35.363281 C 33.390625 35.363281 36.105469 35.363281 36.105469 35.363281 Z M 36.105469 68.449219 "/>
<path fill-rule="nonzero" fill="rgb(0%, 0%, 0%)" fill-opacity="1" d="M 69.757812 57.476562 C 69.757812 64.484375 65.097656 69.148438 58.421875 69.148438 C 52.550781 69.148438 48.828125 66.535156 47.480469 59.953125 C 47.480469 59.953125 51.578125 59.953125 51.578125 59.953125 C 52.550781 63.679688 54.753906 65.507812 58.335938 65.507812 C 62.808594 65.507812 65.558594 62.808594 65.558594 58.039062 C 65.558594 53.136719 62.757812 50.300781 58.335938 50.300781 C 55.777344 50.300781 54.1875 51.085938 52.277344 53.375 C 52.277344 53.375 48.503906 53.375 48.503906 53.375 C 48.503906 53.375 50.960938 36.066406 50.960938 36.066406 C 50.960938 36.066406 68.035156 36.066406 68.035156 36.066406 C 68.035156 36.066406 68.035156 40.113281 68.035156 40.113281 C 68.035156 40.113281 54.273438 40.113281 54.273438 40.113281 C 54.273438 40.113281 52.976562 48.660156 52.976562 48.660156 C 54.890625 47.257812 56.75 46.660156 59.089844 46.660156 C 65.421875 46.660156 69.757812 50.949219 69.757812 57.476562 Z M 69.757812 57.476562 "/>
<path fill="none" stroke-width="3.274542" stroke-linecap="butt" stroke-linejoin="miter" stroke="rgb(29.803467%, 29.803467%, 84.70459%)" stroke-opacity="1" stroke-miterlimit="2" d="M 155.359883 422.296875 C 162.89483 479.238281 161.780424 538.15625 190.51645 592.601562 C 198.598824 611.488281 230.830564 619.316406 256.383691 611.023438 C 341.884023 587.421875 404.122603 538.988281 481.415436 506.375 C 590.701487 455.375 725.599317 440.261719 855.777542 434.1875 C 1070.904762 424.496094 1286.817931 425.429688 1502.312709 423.894531 " transform="matrix(0.998991, 0, 0, 1, 0, 0)"/>
<path fill="none" stroke-width="3.274542" stroke-linecap="butt" stroke-linejoin="miter" stroke="rgb(84.312439%, 46.665955%, 100%)" stroke-opacity="1" stroke-miterlimit="2" d="M 155.359883 685.679688 C 162.89483 628.734375 161.780424 569.820312 190.51645 515.371094 C 198.598824 496.484375 230.830564 488.664062 256.383691 496.953125 C 341.884023 520.554688 404.126514 568.988281 481.415436 601.605469 C 590.701487 652.605469 725.599317 667.71875 855.777542 673.789062 C 1070.904762 683.472656 1286.81402 682.550781 1502.312709 684.082031 " transform="matrix(0.998991, 0, 0, 1, 0, 0)"/>
<path fill="none" stroke-width="3.274542" stroke-linecap="butt" stroke-linejoin="miter" stroke="rgb(29.803467%, 84.70459%, 84.70459%)" stroke-opacity="1" stroke-miterlimit="2" d="M 155.359883 27.21875 C 165.061078 136.964844 177.370373 249.515625 245.517258 351.199219 C 301.347028 439.5625 379.699523 528.246094 508.454437 576.597656 C 648.994679 629.882812 812.221876 645.378906 970.268063 658.023438 C 1146.977613 670.753906 1324.746826 675.617188 1502.312709 679.277344 " transform="matrix(0.998991, 0, 0, 1, 0, 0)"/>
<path fill="none" stroke-width="3.285691" stroke-linecap="butt" stroke-linejoin="miter" stroke="rgb(29.803467%, 80.39093%, 29.803467%)" stroke-opacity="1" stroke-miterlimit="2" d="M 155.234757 686.019531 C 181.784984 670.921875 188.874168 645.316406 203.603874 624.75 C 281.275995 492.492188 349.720055 355.210938 471.823726 237.695312 C 541.225784 170.28125 641.678704 117.441406 757.88189 91.867188 C 919.513727 55.503906 1091.112651 47.503906 1259.943158 39.105469 C 1340.708243 35.609375 1421.563264 33.164062 1502.441745 31.242188 " transform="matrix(0.998991, 0, 0, 1, 0, 0)"/>
<path fill-rule="nonzero" fill="rgb(100%, 100%, 100%)" fill-opacity="1" stroke-width="2.002023" stroke-linecap="butt" stroke-linejoin="miter" stroke="rgb(0%, 0%, 0%)" stroke-opacity="1" stroke-miterlimit="2" d="M 1358.636489 66.269531 L 1490.769812 66.269531 L 1490.769812 276.484375 L 1358.636489 276.484375 Z M 1358.636489 66.269531 " transform="matrix(0.998991, 0, 0, 1, 0, 0)"/>
<path fill="none" stroke-width="1.63274" stroke-linecap="butt" stroke-linejoin="miter" stroke="rgb(0%, 0%, 0%)" stroke-opacity="1" stroke-miterlimit="2" d="M 155.430267 739.9375 L 155.430267 747.925781 " transform="matrix(0.998991, 0, 0, 1, 0, 0)"/>
<path fill="none" stroke-width="1.63274" stroke-linecap="butt" stroke-linejoin="miter" stroke="rgb(0%, 0%, 0%)" stroke-opacity="1" stroke-miterlimit="2" d="M 828.836296 739.9375 L 828.836296 747.925781 " transform="matrix(0.998991, 0, 0, 1, 0, 0)"/>
<path fill="none" stroke-width="1.63274" stroke-linecap="butt" stroke-linejoin="miter" stroke="rgb(0%, 0%, 0%)" stroke-opacity="1" stroke-miterlimit="2" d="M 1502.242325 739.9375 L 1502.242325 747.925781 " transform="matrix(0.998991, 0, 0, 1, 0, 0)"/>
<path fill="none" stroke-width="1.63274" stroke-linecap="butt" stroke-linejoin="miter" stroke="rgb(0%, 0%, 0%)" stroke-opacity="1" stroke-miterlimit="2" d="M 87.087872 706.523438 L 75.075751 706.523438 " transform="matrix(0.998991, 0, 0, 1, 0, 0)"/>
<path fill="none" stroke-width="1.63274" stroke-linecap="butt" stroke-linejoin="miter" stroke="rgb(0%, 0%, 0%)" stroke-opacity="1" stroke-miterlimit="2" d="M 87.087872 488.230469 L 75.075751 488.230469 " transform="matrix(0.998991, 0, 0, 1, 0, 0)"/>
<path fill="none" stroke-width="1.63274" stroke-linecap="butt" stroke-linejoin="miter" stroke="rgb(0%, 0%, 0%)" stroke-opacity="1" stroke-miterlimit="2" d="M 87.087872 269.933594 L 75.075751 269.933594 " transform="matrix(0.998991, 0, 0, 1, 0, 0)"/>
<path fill="none" stroke-width="1.63274" stroke-linecap="butt" stroke-linejoin="miter" stroke="rgb(0%, 0%, 0%)" stroke-opacity="1" stroke-miterlimit="2" d="M 87.087872 51.636719 L 75.075751 51.636719 " transform="matrix(0.998991, 0, 0, 1, 0, 0)"/>
<path fill="none" stroke-width="4.004038" stroke-linecap="butt" stroke-linejoin="miter" stroke="rgb(29.803467%, 29.803467%, 84.70459%)" stroke-opacity="1" stroke-miterlimit="2" d="M 1378.312592 102.308594 L 1418.352993 102.308594 " transform="matrix(0.998991, 0, 0, 1, 0, 0)"/>
<path fill="none" stroke-width="4.004038" stroke-linecap="butt" stroke-linejoin="miter" stroke="rgb(84.312439%, 46.665955%, 100%)" stroke-opacity="1" stroke-miterlimit="2" d="M 1378.312592 148.355469 L 1418.352993 148.355469 " transform="matrix(0.998991, 0, 0, 1, 0, 0)"/>
<path fill="none" stroke-width="4.004038" stroke-linecap="butt" stroke-linejoin="miter" stroke="rgb(29.803467%, 84.70459%, 84.70459%)" stroke-opacity="1" stroke-miterlimit="2" d="M 1378.312592 194.402344 L 1418.352993 194.402344 " transform="matrix(0.998991, 0, 0, 1, 0, 0)"/>
<path fill="none" stroke-width="4.004038" stroke-linecap="butt" stroke-linejoin="miter" stroke="rgb(29.803467%, 80.39093%, 29.803467%)" stroke-opacity="1" stroke-miterlimit="2" d="M 1378.312592 240.445312 L 1418.352993 240.445312 " transform="matrix(0.998991, 0, 0, 1, 0, 0)"/>
<path fill-rule="nonzero" fill="rgb(0%, 0%, 0%)" fill-opacity="1" d="M 1446.539062 113.984375 C 1446.539062 113.984375 1429.804688 113.984375 1429.804688 113.984375 C 1429.804688 113.984375 1429.804688 90.628906 1429.804688 90.628906 C 1429.804688 90.628906 1445.964844 90.628906 1445.964844 90.628906 C 1445.964844 90.628906 1445.964844 93.257812 1445.964844 93.257812 C 1445.964844 93.257812 1432.78125 93.257812 1432.78125 93.257812 C 1432.78125 93.257812 1432.78125 100.71875 1432.78125 100.71875 C 1432.78125 100.71875 1445.484375 100.71875 1445.484375 100.71875 C 1445.484375 100.71875 1445.484375 103.34375 1445.484375 103.34375 C 1445.484375 103.34375 1432.78125 103.34375 1432.78125 103.34375 C 1432.78125 103.34375 1432.78125 111.355469 1432.78125 111.355469 C 1432.78125 111.355469 1446.539062 111.355469 1446.539062 111.355469 Z M 1446.539062 113.984375 "/>
<path fill-rule="nonzero" fill="rgb(0%, 0%, 0%)" fill-opacity="1" d="M 1446.539062 160.03125 C 1446.539062 160.03125 1429.804688 160.03125 1429.804688 160.03125 C 1429.804688 160.03125 1429.804688 136.675781 1429.804688 136.675781 C 1429.804688 136.675781 1445.964844 136.675781 1445.964844 136.675781 C 1445.964844 136.675781 1445.964844 139.300781 1445.964844 139.300781 C 1445.964844 139.300781 1432.78125 139.300781 1432.78125 139.300781 C 1432.78125 139.300781 1432.78125 146.761719 1432.78125 146.761719 C 1432.78125 146.761719 1445.484375 146.761719 1445.484375 146.761719 C 1445.484375 146.761719 1445.484375 149.390625 1445.484375 149.390625 C 1445.484375 149.390625 1432.78125 149.390625 1432.78125 149.390625 C 1432.78125 149.390625 1432.78125 157.402344 1432.78125 157.402344 C 1432.78125 157.402344 1446.539062 157.402344 1446.539062 157.402344 Z M 1469.160156 160.03125 C 1469.160156 160.03125 1465.832031 160.03125 1465.832031 160.03125 C 1465.832031 160.03125 1463.429688 153.015625 1463.429688 153.015625 C 1463.429688 153.015625 1454.441406 153.015625 1454.441406 153.015625 C 1454.441406 153.015625 1451.980469 160.03125 1451.980469 160.03125 C 1451.980469 160.03125 1448.804688 160.03125 1448.804688 160.03125 C 1448.804688 160.03125 1457.125 136.675781 1457.125 136.675781 C 1457.125 136.675781 1460.96875 136.675781 1460.96875 136.675781 Z M 1462.597656 150.515625 C 1462.597656 150.515625 1459.023438 139.875 1459.023438 139.875 C 1459.023438 139.875 1455.179688 150.515625 1455.179688 150.515625 Z M 1462.597656 150.515625 "/>
<path fill-rule="nonzero" fill="rgb(0%, 0%, 0%)" fill-opacity="1" d="M 1447.816406 206.074219 C 1447.816406 206.074219 1444.488281 206.074219 1444.488281 206.074219 C 1444.488281 206.074219 1442.085938 199.058594 1442.085938 199.058594 C 1442.085938 199.058594 1433.097656 199.058594 1433.097656 199.058594 C 1433.097656 199.058594 1430.636719 206.074219 1430.636719 206.074219 C 1430.636719 206.074219 1427.460938 206.074219 1427.460938 206.074219 C 1427.460938 206.074219 1435.78125 182.71875 1435.78125 182.71875 C 1435.78125 182.71875 1439.625 182.71875 1439.625 182.71875 Z M 1441.253906 196.5625 C 1441.253906 196.5625 1437.679688 185.921875 1437.679688 185.921875 C 1437.679688 185.921875 1433.835938 196.5625 1433.835938 196.5625 Z M 1441.253906 196.5625 "/>
<path fill-rule="nonzero" fill="rgb(0%, 0%, 0%)" fill-opacity="1" d="M 1446.855469 245.460938 C 1446.855469 249.308594 1444.171875 252.125 1439.976562 252.125 C 1439.976562 252.125 1429.453125 252.125 1429.453125 252.125 C 1429.453125 252.125 1429.453125 228.769531 1429.453125 228.769531 C 1429.453125 228.769531 1438.921875 228.769531 1438.921875 228.769531 C 1443.339844 228.769531 1445.835938 231.300781 1445.835938 234.691406 C 1445.835938 237.0625 1444.710938 238.796875 1442.601562 239.792969 C 1445.578125 240.945312 1446.855469 242.644531 1446.855469 245.460938 Z M 1442.859375 235.113281 C 1442.859375 232.746094 1441.488281 231.394531 1438.183594 231.394531 C 1438.183594 231.394531 1432.429688 231.394531 1432.429688 231.394531 C 1432.429688 231.394531 1432.429688 238.832031 1432.429688 238.832031 C 1432.429688 238.832031 1438.183594 238.832031 1438.183594 238.832031 C 1441.488281 238.832031 1442.859375 237.484375 1442.859375 235.113281 Z M 1443.878906 245.496094 C 1443.878906 243.21875 1442.507812 241.460938 1439.695312 241.460938 C 1439.695312 241.460938 1432.429688 241.460938 1432.429688 241.460938 C 1432.429688 241.460938 1432.429688 249.496094 1432.429688 249.496094 C 1432.429688 249.496094 1439.695312 249.496094 1439.695312 249.496094 C 1442.507812 249.496094 1443.878906 247.738281 1443.878906 245.496094 Z M 1443.878906 245.496094 "/>
<path fill="none" stroke-width="1.63274" stroke-linecap="butt" stroke-linejoin="miter" stroke="rgb(0%, 0%, 0%)" stroke-opacity="1" stroke-miterlimit="2" d="M 87.087872 739.269531 L 1570.58472 739.269531 " transform="matrix(0.998991, 0, 0, 1, 0, 0)"/>
<path fill="none" stroke-width="1.63274" stroke-linecap="butt" stroke-linejoin="miter" stroke="rgb(0%, 0%, 0%)" stroke-opacity="1" stroke-miterlimit="2" d="M 88.088882 739.9375 L 88.088882 18.226562 " transform="matrix(0.998991, 0, 0, 1, 0, 0)"/>
<path fill="none" stroke-width="1.63274" stroke-linecap="butt" stroke-linejoin="miter" stroke="rgb(0%, 0%, 0%)" stroke-opacity="1" stroke-miterlimit="2" d="M 87.087872 18.890625 L 1570.58472 18.890625 " transform="matrix(0.998991, 0, 0, 1, 0, 0)"/>
<path fill="none" stroke-width="1.63274" stroke-linecap="butt" stroke-linejoin="miter" stroke="rgb(0%, 0%, 0%)" stroke-opacity="1" stroke-miterlimit="2" d="M 1569.58371 739.9375 L 1569.58371 18.226562 " transform="matrix(0.998991, 0, 0, 1, 0, 0)"/>
</svg>
